<svg width="175" height="103" viewBox="0 0 175 103" fill="none" xmlns="http://www.w3.org/2000/svg">
<path d="M22.4148 26.2634C28.7129 38.1387 31.6628 44.3475 29.6884 47.3157C27.7139 50.2839 20.8475 49.9629 7.477 48.7197C20.8475 49.9629 27.7245 50.8875 29.464 54.1855C31.2036 57.4834 27.8478 63.1476 20.7754 73.7797C28.1068 62.7583 32.0338 57.4742 35.8717 58.2372C39.4532 58.9351 42.9379 64.903 49.0279 76.3591C42.7298 64.4838 39.7799 58.275 41.7543 55.3068C43.7288 52.3386 50.5952 52.6596 63.9819 53.8785C49.7616 52.5613 42.9169 51.588 41.7118 47.7682C40.6565 44.3989 44.048 38.7936 50.6834 28.8185C43.2064 40.0588 39.2534 45.3256 35.3309 44.2957C31.8107 43.393 28.352 37.4423 22.4148 26.2634Z" fill="white"/>
<path d="M143.229 20.4782C136.288 33.2939 132.679 40.9093 133.181 47.3923C133.757 55.0022 140.126 60.9504 153.565 71.792C137.815 63.2806 129.882 59.7787 122.408 62.7306C116.586 65.007 111.03 71.264 102.288 82.1209C109.2 69.3491 112.838 61.6897 112.35 55.2799C111.76 47.5969 105.435 41.6779 91.9515 30.807C105.989 38.3694 113.79 41.974 120.593 40.6037C127.396 39.2333 133.273 32.8735 143.229 20.4782Z" fill="white"/>
</svg>
