<svg width="1216" height="1449" viewBox="0 0 1216 1449" fill="none" xmlns="http://www.w3.org/2000/svg">
<g opacity="0.5">
<path opacity="0.0344828" d="M634.21 746.423C630.834 609.207 614.901 485.314 591.876 395.934C580.363 351.24 567.083 315.203 552.73 290.449C545.554 278.072 538.121 268.539 530.528 262.153C522.937 255.771 515.21 252.553 507.422 252.744C499.634 252.936 492.074 256.53 484.807 263.278C477.537 270.029 470.583 279.916 464.024 292.631C450.905 318.061 439.413 354.708 430.112 399.914C411.51 490.318 401.688 614.844 405.063 752.06C408.439 889.275 424.372 1013.17 447.396 1102.55C458.91 1147.24 472.19 1183.28 486.542 1208.03C493.719 1220.41 501.15 1229.94 508.744 1236.33C516.334 1242.71 524.062 1245.93 531.85 1245.74C539.638 1245.55 547.197 1241.95 554.465 1235.2C561.735 1228.45 568.69 1218.57 575.249 1205.85C588.367 1180.42 599.859 1143.78 609.161 1098.57C627.763 1008.17 637.585 883.638 634.21 746.423Z" stroke="#848A89" stroke-opacity="0.5"/>
<path opacity="0.0689655" d="M630.425 733.973C615.104 597.574 588.433 475.541 557.706 388.508C542.341 344.987 525.971 310.244 509.515 286.836C501.287 275.131 493.052 266.282 484.931 260.583C476.813 254.886 468.835 252.353 461.093 253.223C453.352 254.093 446.134 258.332 439.482 265.688C432.828 273.047 426.762 283.503 421.336 296.741C410.484 323.217 402.23 360.726 396.904 406.571C386.252 498.252 387.32 623.161 402.642 759.56C417.964 895.959 444.634 1017.99 475.361 1105.03C490.726 1148.55 507.096 1183.29 523.552 1206.7C531.78 1218.4 540.014 1227.25 548.135 1232.95C556.253 1238.65 564.232 1241.18 571.973 1240.31C579.715 1239.44 586.932 1235.2 593.584 1227.85C600.238 1220.49 606.305 1210.03 611.731 1196.79C622.583 1170.32 630.837 1132.81 636.164 1086.96C646.816 995.281 645.747 870.372 630.425 733.973Z" stroke="#848A89" stroke-opacity="0.5"/>
<path opacity="0.103448" d="M625.774 721.619C598.623 587.074 561.418 467.83 523.222 383.806C504.123 341.79 484.787 308.607 466.354 286.721C457.137 275.778 448.162 267.681 439.575 262.711C430.991 257.743 422.823 255.916 415.186 257.457C407.55 258.998 400.729 263.85 394.744 271.758C388.757 279.669 383.625 290.613 379.374 304.274C370.87 331.595 365.917 369.681 364.606 415.815C361.985 508.076 373.936 632.416 401.088 766.961C428.239 901.506 465.444 1020.75 503.64 1104.77C522.739 1146.79 542.075 1179.97 560.508 1201.86C569.725 1212.8 578.699 1220.9 587.286 1225.87C595.87 1230.84 604.038 1232.66 611.675 1231.12C619.311 1229.58 626.132 1224.73 632.117 1216.82C638.105 1208.91 643.237 1197.97 647.488 1184.31C655.991 1156.98 660.945 1118.9 662.256 1072.77C664.877 980.504 652.926 856.164 625.774 721.619Z" stroke="#848A89" stroke-opacity="0.5"/>
<path opacity="0.137931" d="M620.27 709.438C581.495 577.772 534.039 462.224 488.666 381.849C465.977 341.657 443.823 310.285 423.552 290.089C413.417 279.992 403.77 272.707 394.783 268.505C385.799 264.304 377.502 263.195 370.029 265.396C362.556 267.597 356.184 273.025 350.911 281.424C345.636 289.827 341.478 301.177 338.433 315.156C332.343 343.115 330.728 381.487 333.443 427.56C338.873 519.698 361.616 642.524 400.39 774.19C439.165 905.857 486.621 1021.4 531.994 1101.78C554.683 1141.97 576.837 1173.34 597.108 1193.54C607.243 1203.64 616.889 1210.92 625.877 1215.12C634.86 1219.33 643.157 1220.43 650.63 1218.23C658.103 1216.03 664.475 1210.6 669.748 1202.2C675.024 1193.8 679.182 1182.45 682.227 1168.47C688.317 1140.51 689.932 1102.14 687.217 1056.07C681.787 963.93 659.044 841.105 620.27 709.438Z" stroke="#848A89" stroke-opacity="0.5"/>
<path opacity="0.172414" d="M613.928 697.504C563.825 569.718 506.479 458.746 454.273 382.631C428.168 344.571 403.364 315.248 381.41 296.896C370.433 287.72 360.188 281.304 350.869 277.901C341.553 274.499 333.191 274.118 325.939 276.962C318.686 279.806 312.811 285.768 308.29 294.595C303.767 303.426 300.614 315.095 298.799 329.286C295.17 357.669 296.905 396.036 303.625 441.697C317.065 533.012 350.426 653.388 400.529 781.174C450.631 908.96 507.977 1019.93 560.183 1096.05C586.288 1134.11 611.093 1163.43 633.046 1181.78C644.023 1190.96 654.267 1197.37 663.587 1200.78C672.902 1204.18 681.264 1204.56 688.517 1201.72C695.77 1198.87 701.644 1192.91 706.165 1184.08C710.688 1175.25 713.842 1163.58 715.657 1149.39C719.286 1121.01 717.552 1082.64 710.831 1036.98C697.391 945.666 664.03 825.29 613.928 697.504Z" stroke="#848A89" stroke-opacity="0.5"/>
<path opacity="0.206897" d="M606.773 685.888C545.724 562.955 478.924 457.404 420.283 386.128C390.96 350.488 363.695 323.439 340.225 307.07C328.49 298.886 317.725 293.387 308.144 290.809C298.568 288.232 290.204 288.581 283.227 292.046C276.25 295.511 270.917 301.963 267.183 311.151C263.447 320.342 261.323 332.241 260.752 346.537C259.609 375.128 264.682 413.198 275.357 458.1C296.704 547.895 340.429 664.905 401.478 787.839C462.527 910.772 529.327 1016.32 587.968 1087.6C617.291 1123.24 644.557 1150.29 668.026 1166.66C679.761 1174.84 690.526 1180.34 700.106 1182.92C709.683 1185.5 718.046 1185.15 725.024 1181.68C732.001 1178.22 737.333 1171.76 741.068 1162.58C744.804 1153.39 746.928 1141.48 747.499 1127.19C748.642 1098.6 743.57 1060.53 732.895 1015.63C711.548 925.832 667.822 808.821 606.773 685.888Z" stroke="#848A89" stroke-opacity="0.5"/>
<path opacity="0.241379" d="M598.836 674.659C527.305 557.514 451.56 458.186 386.93 392.293C354.612 359.344 325.093 334.775 300.286 320.513C287.882 313.383 276.679 308.843 266.91 307.11C257.145 305.378 248.844 306.454 242.196 310.514C235.547 314.574 230.797 321.467 227.877 330.944C224.957 340.426 223.878 352.466 224.555 366.757C225.909 395.339 234.28 432.821 248.828 476.622C277.92 564.215 331.677 676.969 403.208 794.114C474.739 911.258 550.484 1010.59 615.114 1076.48C647.432 1109.43 676.951 1134 701.758 1148.26C714.161 1155.39 725.364 1159.93 735.133 1161.66C744.898 1163.4 753.199 1162.32 759.848 1158.26C766.497 1154.2 771.246 1147.31 774.166 1137.83C777.087 1128.35 778.166 1116.31 777.489 1102.02C776.135 1073.43 767.764 1035.95 753.217 992.151C724.124 904.558 670.367 791.803 598.836 674.659Z" stroke="#848A89" stroke-opacity="0.5"/>
<path opacity="0.275862" d="M590.157 663.887C508.689 553.422 424.575 461.074 354.448 401.064C319.381 371.057 287.833 349.154 261.877 337.109C248.899 331.087 237.343 327.541 227.46 326.666C217.582 325.791 209.406 327.587 203.136 332.211C196.867 336.835 192.736 344.115 190.653 353.811C188.57 363.512 188.545 375.599 190.465 389.777C194.305 418.132 205.911 454.743 224.22 497.108C260.836 581.833 324.216 689.473 405.685 799.937C487.153 910.401 571.267 1002.75 641.394 1062.76C676.461 1092.77 708.009 1114.67 733.964 1126.71C746.942 1132.74 758.498 1136.28 768.381 1137.16C778.26 1138.03 786.435 1136.24 792.705 1131.61C798.974 1126.99 803.105 1119.71 805.188 1110.01C807.271 1100.31 807.297 1088.22 805.377 1074.05C801.537 1045.69 789.931 1009.08 771.622 966.715C735.006 881.991 671.626 774.351 590.157 663.887Z" stroke="#848A89" stroke-opacity="0.5"/>
<path opacity="0.310345" d="M580.776 653.631C489.99 550.687 398.147 466.021 323.057 412.352C285.509 385.515 252.171 366.445 225.265 356.708C211.811 351.84 199.99 349.315 190.069 349.304C180.151 349.294 172.163 351.796 166.321 356.948C160.478 362.101 156.997 369.714 155.768 379.554C154.538 389.399 155.566 401.443 158.714 415.399C165.011 443.312 179.764 478.772 201.696 519.381C245.557 600.591 318.077 702.298 408.863 805.241C499.649 908.185 591.492 992.851 666.582 1046.52C704.131 1073.36 737.467 1092.43 764.374 1102.16C777.827 1107.03 789.648 1109.56 799.57 1109.57C809.487 1109.58 817.475 1107.08 823.318 1101.92C829.161 1096.77 832.641 1089.16 833.871 1079.32C835.101 1069.47 834.073 1057.43 830.924 1043.47C824.628 1015.56 809.875 980.1 787.943 939.491C744.082 858.281 671.562 756.574 580.776 653.631Z" stroke="#848A89" stroke-opacity="0.5"/>
<path opacity="0.344828" d="M570.738 643.952C471.325 549.313 372.453 472.973 292.971 426.053C253.226 402.591 218.354 386.499 190.701 379.144C176.875 375.467 164.879 373.982 154.994 374.836C145.113 375.69 137.374 378.878 132.002 384.521C126.631 390.163 123.827 398.05 123.46 407.96C123.093 417.875 125.167 429.783 129.519 443.412C138.225 470.67 156.012 504.709 181.4 543.252C232.172 620.331 313.28 715.33 412.693 809.969C512.106 904.608 610.978 980.947 690.46 1027.87C730.205 1051.33 765.077 1067.42 792.729 1074.78C806.556 1078.45 818.552 1079.94 828.437 1079.09C838.317 1078.23 846.057 1075.04 851.428 1069.4C856.8 1063.76 859.604 1055.87 859.971 1045.96C860.338 1036.05 858.264 1024.14 853.911 1010.51C845.206 983.25 827.419 949.212 802.031 910.669C751.26 833.59 670.151 738.591 570.738 643.952Z" stroke="#848A89" stroke-opacity="0.5"/>
<path opacity="0.37931" d="M560.1 634.903C452.817 549.289 347.667 481.857 264.398 442.043C222.76 422.134 186.618 409.142 158.429 404.226C144.335 401.768 132.255 401.333 122.482 403.046C112.714 404.758 105.282 408.609 100.422 414.698C95.5631 420.787 93.457 428.888 93.9552 438.793C94.4535 448.702 97.5576 460.384 103.082 473.582C114.129 499.977 134.816 532.336 163.466 568.52C220.763 640.88 309.842 728.448 417.125 814.063C524.408 899.678 629.558 967.109 712.827 1006.92C754.465 1026.83 790.606 1039.82 818.795 1044.74C832.889 1047.2 844.969 1047.63 854.742 1045.92C864.511 1044.21 871.943 1040.36 876.802 1034.27C881.661 1028.18 883.767 1020.08 883.269 1010.17C882.771 1000.27 879.667 988.582 874.143 975.384C863.095 948.989 842.409 916.63 813.758 880.447C756.462 808.086 667.383 720.518 560.1 634.903Z" stroke="#848A89" stroke-opacity="0.5"/>
<path opacity="0.413793" d="M548.917 626.537C434.58 550.599 323.954 492.588 237.532 460.183C194.317 443.978 157.18 434.186 128.67 431.745C114.415 430.525 102.343 431.145 92.7569 433.703C83.1747 436.26 76.1066 440.743 71.7965 447.233C67.4865 453.722 66.0945 461.976 67.454 471.8C68.8141 481.628 72.9245 492.995 79.5777 505.661C92.8841 530.993 116.312 561.426 148.007 594.975C211.392 662.066 307.765 741.538 422.101 817.476C536.438 893.415 647.064 951.425 733.486 983.831C776.701 1000.03 813.838 1009.83 842.347 1012.27C856.602 1013.49 868.674 1012.87 878.261 1010.31C887.843 1007.75 894.911 1003.27 899.221 996.781C903.531 990.292 904.923 982.038 903.564 972.214C902.204 962.386 898.093 951.018 891.44 938.352C878.133 913.02 854.706 882.587 823.011 849.039C759.626 781.947 663.253 702.476 548.917 626.537Z" stroke="#848A89" stroke-opacity="0.5"/>
<path opacity="0.448276" d="M537.253 618.898C416.733 553.214 301.472 505.066 212.554 480.316C168.091 467.94 130.242 461.422 101.628 461.475C87.3212 461.501 75.3492 463.171 66.0224 466.555C56.6995 469.937 50.0491 475.02 46.321 481.86C42.593 488.701 41.9256 497.044 44.1362 506.712C46.3477 516.384 51.4331 527.35 59.1649 539.388C74.6285 563.463 100.62 591.739 135.118 622.398C204.109 683.709 307.042 754.479 427.562 820.163C548.082 885.848 663.343 933.996 752.261 958.746C796.723 971.122 834.572 977.64 863.186 977.587C877.493 977.56 889.465 975.891 898.792 972.508C908.115 969.126 914.765 964.043 918.493 957.202C922.221 950.362 922.889 942.018 920.678 932.35C918.467 922.678 913.381 911.712 905.649 899.673C890.185 875.598 864.195 847.323 829.697 816.664C760.705 755.352 657.773 684.583 537.253 618.898Z" stroke="#848A89" stroke-opacity="0.5"/>
<path opacity="0.482759" d="M525.171 612.026C399.385 557.096 280.366 519.176 189.63 502.27C144.257 493.816 105.984 490.622 77.4838 493.169C63.2334 494.442 51.4525 497.149 42.4561 501.333C33.4634 505.515 27.2813 511.158 24.1636 518.297C21.046 525.436 21.1084 533.807 24.1531 543.245C27.1991 552.687 33.221 563.168 41.9725 574.486C59.4756 597.123 87.8321 623.025 124.872 650.561C198.944 705.626 307.652 767.155 433.439 822.086C559.225 877.016 678.244 914.935 768.98 931.842C814.352 940.295 852.625 943.489 881.125 940.943C895.376 939.669 907.157 936.963 916.153 932.78C925.146 928.598 931.328 922.955 934.446 915.816C937.564 908.676 937.501 900.306 934.456 890.868C931.41 881.425 925.388 870.944 916.636 859.625C899.133 836.989 870.778 811.086 833.738 783.551C759.666 728.486 650.957 666.957 525.171 612.026Z" stroke="#848A89" stroke-opacity="0.5"/>
<path opacity="0.517241" d="M512.74 605.952C382.645 562.194 260.774 534.792 168.909 525.859C122.973 521.391 84.5671 521.545 56.397 526.566C42.3118 529.076 30.8118 532.8 22.2141 537.752C13.6202 542.701 7.95341 548.862 5.46978 556.246C2.98628 563.629 3.77796 571.962 7.63369 581.1C11.4911 590.241 18.4035 600.157 28.1081 610.669C47.5175 631.694 78.0237 655.026 117.322 679.229C195.912 727.629 309.569 779.449 439.664 823.208C569.759 866.966 691.63 894.368 783.495 903.301C829.431 907.769 867.836 907.615 896.006 902.594C910.092 900.083 921.592 896.361 930.19 891.409C938.784 886.46 944.45 880.299 946.934 872.915C949.418 865.531 948.626 857.198 944.77 848.061C940.913 838.92 934 829.003 924.295 818.491C904.886 797.466 874.38 774.134 835.082 749.931C756.492 701.531 642.835 649.711 512.74 605.952Z" stroke="#848A89" stroke-opacity="0.5"/>
<path opacity="0.551724" d="M500.033 600.706C366.619 568.452 242.824 551.777 150.53 550.883C104.379 550.437 66.1326 553.937 38.5073 561.394C24.6945 565.123 13.5628 569.834 5.42943 575.517C-2.70043 581.196 -7.80872 587.827 -9.63935 595.4C-11.4699 602.972 -9.95493 611.204 -5.31752 619.97C-0.678098 628.74 7.07225 638.016 17.6562 647.643C38.8241 666.896 71.2478 687.481 112.506 708.166C195.015 749.532 312.756 791.25 446.17 823.503C579.584 855.757 703.379 872.432 795.673 873.325C841.824 873.772 880.07 870.272 907.695 862.815C921.508 859.086 932.64 854.375 940.773 848.693C948.903 843.013 954.011 836.382 955.842 828.81C957.673 821.238 956.158 813.006 951.52 804.239C946.881 795.469 939.13 786.193 928.546 776.566C907.378 757.313 874.955 736.728 833.697 716.043C751.188 674.677 633.446 632.959 500.033 600.706Z" stroke="#848A89" stroke-opacity="0.5"/>
<path opacity="0.586207" d="M487.117 596.306C351.4 575.803 226.623 569.981 134.602 577.135C88.588 580.712 50.7921 587.533 23.9219 597.369C10.4867 602.287 -0.19204 607.951 -7.79919 614.321C-15.4031 620.687 -19.914 627.738 -21.0777 635.441C-22.2413 643.144 -20.0146 651.213 -14.6308 659.542C-9.24472 667.874 -0.715414 676.439 10.6672 685.107C33.4326 702.442 67.527 720.122 110.431 737.133C196.231 771.151 317.161 802.447 452.878 822.95C588.595 843.453 713.373 849.276 805.393 842.122C851.407 838.545 889.202 831.724 916.072 821.888C929.508 816.97 940.187 811.307 947.794 804.937C955.398 798.57 959.909 791.519 961.073 783.816C962.237 776.114 960.01 768.045 954.626 759.716C949.24 751.383 940.71 742.818 929.327 734.15C906.562 716.815 872.468 699.134 829.564 682.124C743.764 648.106 622.834 616.809 487.117 596.306Z" stroke="#848A89" stroke-opacity="0.5"/>
<path opacity="0.62069" d="M474.075 592.77C337.087 584.174 212.277 589.248 121.23 604.395C75.7026 611.97 38.645 622.058 12.7343 634.199C-0.221154 640.269 -10.3656 646.843 -17.3886 653.851C-24.4087 660.856 -28.2879 668.273 -28.7758 676.048C-29.2637 683.823 -26.3422 691.668 -20.253 699.495C-14.1612 707.326 -4.91782 715.116 7.17691 722.758C31.3665 738.043 66.8722 752.685 111.095 765.891C199.534 792.302 322.731 812.94 459.719 821.536C596.706 830.132 721.517 825.058 812.563 809.911C858.09 802.337 895.147 792.248 921.058 780.107C934.014 774.037 944.159 767.465 951.182 760.456C958.202 753.451 962.081 746.034 962.569 738.259C963.057 730.484 960.135 722.64 954.046 714.812C947.954 706.981 938.71 699.191 926.615 691.548C902.426 676.263 866.921 661.621 822.698 648.415C734.259 622.005 611.062 601.367 474.075 592.77Z" stroke="#848A89" stroke-opacity="0.5"/>
<path opacity="0.655172" d="M460.974 590.103C323.759 593.478 199.865 609.412 110.485 632.436C65.7914 643.95 29.7541 657.229 5.00021 671.582C-7.37688 678.759 -16.9098 686.191 -23.2953 693.785C-29.6781 701.375 -32.8962 709.103 -32.7046 716.891C-32.5129 724.678 -28.9189 732.238 -22.1706 739.506C-15.4194 746.776 -5.5324 753.73 7.18239 760.289C32.6121 773.407 69.2588 784.899 114.465 794.201C204.869 812.803 329.396 822.625 466.611 819.249C603.827 815.874 727.72 799.941 817.1 776.916C861.794 765.403 897.83 752.123 922.584 737.77C934.961 730.593 944.495 723.162 950.881 715.568C957.263 707.978 960.481 700.251 960.29 692.463C960.098 684.675 956.504 677.115 949.756 669.848C943.005 662.577 933.117 655.623 920.402 649.063C894.972 635.945 858.326 624.453 813.121 615.152C722.717 596.55 598.19 586.727 460.974 590.103Z" stroke="#848A89" stroke-opacity="0.5"/>
<path opacity="0.689655" d="M447.898 588.309C311.499 603.631 189.466 630.301 102.433 661.028C58.9124 676.393 24.1696 692.763 0.760814 709.219C-10.9437 717.447 -19.7926 725.682 -25.492 733.803C-31.1889 741.921 -33.7212 749.899 -32.8516 757.641C-31.9819 765.383 -27.7427 772.6 -20.3867 779.252C-13.0276 785.906 -2.5721 791.972 10.666 797.398C37.1423 808.25 74.6511 816.504 120.496 821.831C212.177 832.483 337.086 831.414 473.485 816.092C609.885 800.77 731.918 774.1 818.951 743.373C862.471 728.008 897.213 711.638 920.622 695.182C932.326 686.954 941.176 678.72 946.876 670.599C952.573 662.481 955.105 654.503 954.235 646.761C953.366 639.02 949.126 631.802 941.77 625.15C934.411 618.496 923.955 612.43 910.717 607.003C884.24 596.151 846.732 587.897 800.888 582.571C709.206 571.919 584.298 572.987 447.898 588.309Z" stroke="#848A89" stroke-opacity="0.5"/>
<path opacity="0.724138" d="M434.918 587.382C300.373 614.533 181.129 651.738 97.105 689.934C55.0893 709.033 21.9055 728.369 0.0199912 746.803C-10.9229 756.019 -19.0203 764.994 -23.9902 773.581C-28.958 782.165 -30.7853 790.333 -29.2443 797.97C-27.7032 805.606 -22.851 812.427 -14.9433 818.412C-7.03223 824.4 3.91214 829.531 17.5728 833.783C44.8941 842.286 82.9796 847.239 129.114 848.55C221.375 851.171 345.715 839.22 480.26 812.068C614.805 784.917 734.049 747.712 818.073 709.516C860.089 690.417 893.272 671.081 915.157 652.648C926.1 643.431 934.199 634.457 939.169 625.87C944.136 617.287 945.964 609.118 944.423 601.482C942.882 593.845 938.029 587.024 930.122 581.039C922.21 575.052 911.265 569.92 897.604 565.668C870.283 557.165 832.198 552.211 786.064 550.9C693.803 548.28 569.463 560.231 434.918 587.382Z" stroke="#848A89" stroke-opacity="0.5"/>
<path opacity="0.758621" d="M422.108 587.309C290.442 626.084 174.894 673.54 94.519 718.913C54.3278 741.602 22.9555 763.756 2.75988 784.027C-7.33805 794.162 -14.6225 803.809 -18.8251 812.796C-23.0258 821.78 -24.1343 830.077 -21.9335 837.55C-19.7327 845.023 -14.3046 851.395 -5.90532 856.668C2.49752 861.943 13.8475 866.101 27.8267 869.146C55.7852 875.236 94.1574 876.851 140.231 874.136C232.369 868.706 355.194 845.963 486.861 807.189C618.527 768.414 734.075 720.958 814.45 675.585C854.641 652.896 886.013 630.742 906.209 610.471C916.307 600.336 923.592 590.69 927.795 581.702C931.995 572.719 933.104 564.422 930.903 556.949C928.702 549.476 923.274 543.104 914.875 537.831C906.472 532.555 895.121 528.397 881.142 525.352C853.183 519.262 814.812 517.647 768.739 520.362C676.601 525.792 553.775 548.535 422.108 587.309Z" stroke="#848A89" stroke-opacity="0.5"/>
<path opacity="0.793103" d="M409.549 588.074C281.763 638.176 170.791 695.522 94.6758 747.728C56.615 773.833 27.2929 798.638 8.94082 820.591C-0.235322 831.568 -6.65131 841.813 -10.0546 851.133C-13.4564 860.448 -13.8375 868.81 -10.9938 876.063C-8.15003 883.316 -2.18721 889.19 6.63967 893.711C15.4703 898.234 27.1395 901.387 41.3308 903.202C69.7137 906.832 108.081 905.097 153.742 898.376C245.056 884.936 365.432 851.575 493.218 801.473C621.004 751.37 731.976 694.024 808.091 641.818C846.152 615.713 875.473 590.909 893.825 568.955C903.001 557.978 909.419 547.734 912.822 538.415C916.224 529.099 916.605 520.737 913.761 513.484C910.917 506.232 904.954 500.357 896.128 495.836C887.297 491.313 875.627 488.16 861.435 486.345C833.052 482.715 794.686 484.45 749.025 491.17C657.711 504.61 537.335 537.971 409.549 588.074Z" stroke="#848A89" stroke-opacity="0.5"/>
<path opacity="0.827586" d="M397.305 589.65C274.372 650.699 168.82 717.499 97.5449 776.14C61.9041 805.463 34.8555 832.728 18.4866 856.198C10.3021 867.933 4.8034 878.698 2.22535 888.279C-0.351575 897.855 -0.00246478 906.218 3.46253 913.196C6.92758 920.173 13.3797 925.506 22.567 929.24C31.7583 932.976 43.6578 935.1 57.9534 935.671C86.5446 936.813 124.614 931.741 169.516 921.066C259.311 899.719 376.322 855.994 499.255 794.945C622.188 733.895 727.74 667.096 799.015 608.454C834.655 579.131 861.703 551.866 878.072 528.397C886.257 516.662 891.757 505.897 894.335 496.316C896.912 486.74 896.562 478.377 893.098 471.399C889.633 464.422 883.18 459.089 873.993 455.355C864.802 451.619 852.901 449.494 838.605 448.923C810.014 447.781 771.945 452.853 727.044 463.528C637.248 484.875 520.238 528.601 397.305 589.65Z" stroke="#848A89" stroke-opacity="0.5"/>
<path opacity="0.862069" d="M385.45 592.008C268.305 663.539 168.977 739.284 103.084 803.914C70.1349 836.232 45.5655 865.751 31.3045 890.558C24.1738 902.961 19.6343 914.164 17.9011 923.934C16.1686 933.698 17.2453 941.999 21.3052 948.648C25.3652 955.297 32.2575 960.047 41.7354 962.966C51.2173 965.887 63.2566 966.966 77.5476 966.289C106.13 964.935 143.612 956.564 187.413 942.016C275.006 912.924 387.76 859.167 504.905 787.636C622.049 716.105 721.377 640.36 787.27 575.73C820.22 543.412 844.788 513.893 859.049 489.086C866.18 476.682 870.721 465.48 872.454 455.711C874.187 445.946 873.11 437.645 869.05 430.996C864.99 424.347 858.097 419.597 848.62 416.678C839.138 413.757 827.097 412.678 812.806 413.355C784.224 414.709 746.742 423.08 702.942 437.627C615.349 466.719 502.594 520.477 385.45 592.008Z" stroke="#848A89" stroke-opacity="0.5"/>
<path opacity="0.896552" d="M374.051 595.11C263.586 676.578 171.238 760.692 111.228 830.819C81.2211 865.886 59.318 897.434 47.2733 923.39C41.2509 936.368 37.705 947.924 36.8298 957.807C35.955 967.685 37.7511 975.861 42.375 982.131C46.999 988.4 54.2791 992.531 63.9754 994.614C73.6757 996.697 85.7633 996.722 99.9408 994.802C128.296 990.962 164.907 979.356 207.273 961.047C291.997 924.431 399.637 861.051 510.101 779.582C620.566 698.114 712.914 614 772.923 543.873C802.931 508.806 824.833 477.258 836.878 451.303C842.9 438.325 846.447 426.769 847.323 416.886C848.197 407.008 846.401 398.832 841.777 392.562C837.153 386.293 829.873 382.162 820.177 380.079C810.477 377.996 798.388 377.97 784.21 379.89C755.855 383.73 719.245 395.336 676.879 413.645C592.155 450.261 484.515 513.641 374.051 595.11Z" stroke="#848A89" stroke-opacity="0.5"/>
<path opacity="0.931035" d="M363.169 598.913C260.225 689.7 175.559 781.542 121.89 856.632C95.0533 894.181 75.9832 927.518 66.2464 954.425C61.378 967.878 58.8528 979.699 58.8423 989.621C58.8318 999.538 61.3336 1007.53 66.4864 1013.37C71.6392 1019.21 79.2517 1022.69 89.0925 1023.92C98.9375 1025.15 110.981 1024.12 124.938 1020.98C152.85 1014.68 188.31 999.926 228.919 977.993C310.129 934.133 411.836 861.613 514.78 770.826C617.723 680.04 702.389 588.198 756.058 513.107C782.895 475.559 801.964 442.222 811.701 415.316C816.57 401.862 819.096 390.041 819.107 380.12C819.117 370.202 816.615 362.214 811.463 356.372C806.31 350.529 798.697 347.048 788.856 345.819C779.011 344.589 766.967 345.617 753.01 348.765C725.097 355.062 689.638 369.814 649.029 391.746C567.819 435.607 466.112 508.127 363.169 598.913Z" stroke="#848A89" stroke-opacity="0.5"/>
<path opacity="0.965517" d="M352.864 603.372C258.225 702.785 181.886 801.657 134.966 881.139C111.503 920.884 95.4114 955.756 88.0568 983.409C84.3794 997.236 82.8941 1009.23 83.7484 1019.12C84.6023 1029 87.7907 1036.74 93.4332 1042.11C99.0756 1047.48 106.962 1050.28 116.873 1050.65C126.788 1051.02 138.696 1048.94 152.325 1044.59C179.582 1035.89 213.621 1018.1 252.164 992.71C329.243 941.939 424.242 860.83 518.881 761.417C613.521 662.004 689.86 563.132 736.78 483.65C760.242 443.906 776.334 409.034 783.688 381.381C787.366 367.554 788.852 355.558 787.998 345.673C787.144 335.793 783.956 328.053 778.313 322.682C772.671 317.31 764.784 314.506 754.874 314.139C744.959 313.772 733.049 315.846 719.42 320.199C692.163 328.904 658.124 346.691 619.581 372.079C542.503 422.851 447.504 503.959 352.864 603.372Z" stroke="#848A89" stroke-opacity="0.5"/>
<path d="M343.189 608.432C257.575 715.715 190.143 820.864 150.329 904.133C130.42 945.771 117.428 981.913 112.512 1010.1C110.054 1024.2 109.62 1036.28 111.332 1046.05C113.044 1055.82 116.895 1063.25 122.984 1068.11C129.073 1072.97 137.174 1075.07 147.079 1074.58C156.988 1074.08 168.67 1070.97 181.868 1065.45C208.263 1054.4 240.622 1033.72 276.806 1005.06C349.166 947.768 436.735 858.689 522.349 751.406C607.964 644.123 675.395 538.974 715.21 455.705C735.119 414.067 748.11 377.925 753.026 349.736C755.485 335.642 755.92 323.562 754.207 313.789C752.496 304.021 748.645 296.589 742.556 291.729C736.467 286.87 728.365 284.764 718.461 285.262C708.551 285.76 696.868 288.865 683.67 294.389C657.275 305.437 624.916 326.122 588.733 354.773C516.373 412.069 428.804 501.149 343.189 608.432Z" stroke="#848A89" stroke-opacity="0.5"/>
</g>
</svg>
