<svg width="122" height="102" viewBox="0 0 122 102" fill="none" xmlns="http://www.w3.org/2000/svg">
<path d="M44.4432 4.91022C45.5504 4.72957 46.7554 6.054 47.2585 6.60708C48.602 8.08381 48.8825 9.80192 48.991 10.5311C50.703 22.039 51.5588 27.7928 48.0164 30.4683C44.6496 33.0117 38.4959 32.3296 37.2963 30.0441C36.8291 29.1538 37.2198 28.2224 37.8378 26.4382C38.9799 23.1409 39.6532 19.7044 40.6531 16.3631C42.9364 8.73371 42.7448 5.18651 44.4432 4.91022Z" fill="#090814"/>
<path d="M14.978 47.8619L9.70177 57.8216C8.35474 60.3642 1.98041 99.5298 4.81513 100.024L17.0945 100.431L22.1885 100.698L27.4251 100.774L40.4052 101.204L33.114 50.195L14.978 47.8619Z" fill="#2F2E41"/>
<path d="M27.9701 18.644L38.4694 19.0683L39.3174 22.5687L41.8459 24.6314C42.3027 25.0041 42.6538 25.4901 42.8639 26.0409C43.0741 26.5917 43.136 27.188 43.0434 27.7703L41.8627 35.189C41.8627 35.189 44.0892 40.4916 38.469 43.8853L32.8481 53.0058L13.3348 50.9902C13.3348 50.9902 11.5319 50.778 12.8045 49.5058C14.0772 48.2337 15.6679 41.9761 15.6679 41.9761C15.6679 41.9761 15.4559 39.2186 16.1982 38.4763C16.9406 37.734 16.4238 35.8249 16.4238 35.8249L19.443 24.663C19.7292 23.605 20.3559 22.6708 21.2262 22.0046C22.0965 21.3385 23.162 20.9775 24.258 20.9775H27.6065L27.9698 18.6444L27.9701 18.644Z" fill="#B256FC"/>
<path d="M108.738 90.0141L17.0441 65.508C16.1069 65.2576 15.2663 64.7317 14.6312 63.9984C13.9961 63.265 13.5955 62.358 13.4814 61.3947C13.3673 60.4313 13.5448 59.4558 13.9911 58.5944C14.4373 57.733 15.1317 57.0253 15.9845 56.5628L53.2485 36.353C54.1957 35.8411 55.2858 35.6576 56.3484 35.8311L117.941 45.9853C118.585 46.0916 119.202 46.3271 119.753 46.6776C120.304 47.0282 120.779 47.4866 121.149 48.0252C121.519 48.5639 121.776 49.1718 121.905 49.8123C122.034 50.4528 122.032 51.1128 121.899 51.7526L114.737 86.3137C114.51 87.4033 113.916 88.382 113.054 89.086C112.192 89.79 111.115 90.1766 110.002 90.181C109.575 90.1807 109.15 90.1246 108.738 90.0141Z" fill="white"/>
<path d="M108.738 90.0141L17.0441 65.508C16.1069 65.2576 15.2663 64.7317 14.6312 63.9984C13.9961 63.265 13.5955 62.358 13.4814 61.3947C13.3673 60.4313 13.5448 59.4558 13.9911 58.5944C14.4373 57.733 15.1317 57.0253 15.9845 56.5628L53.2485 36.353C54.1957 35.8411 55.2858 35.6576 56.3484 35.8311L117.941 45.9853C118.585 46.0916 119.202 46.3271 119.753 46.6776C120.304 47.0282 120.779 47.4866 121.149 48.0252C121.519 48.5639 121.776 49.1718 121.905 49.8123C122.034 50.4528 122.032 51.1128 121.899 51.7526L114.737 86.3137C114.51 87.4033 113.916 88.382 113.054 89.086C112.192 89.79 111.115 90.1766 110.002 90.181C109.575 90.1807 109.15 90.1246 108.738 90.0141ZM117.858 46.4844L56.2659 36.3302C55.3143 36.1749 54.338 36.3392 53.4897 36.7976L16.2262 57.0076C15.4623 57.4217 14.8402 58.0556 14.4405 58.8271C14.0407 59.5986 13.8816 60.4724 13.9838 61.3353C14.086 62.1982 14.4447 63.0106 15.0137 63.6674C15.5826 64.3243 16.3355 64.7953 17.175 65.0195L108.869 89.5252C109.44 89.6779 110.036 89.7124 110.621 89.6266C111.205 89.5408 111.767 89.3365 112.27 89.0263C112.773 88.716 113.207 88.3063 113.546 87.8223C113.886 87.3383 114.122 86.7901 114.242 86.2113L121.404 51.6502C121.523 51.0772 121.525 50.4861 121.409 49.9124C121.294 49.3388 121.064 48.7944 120.733 48.312C120.401 47.8295 119.976 47.419 119.482 47.1051C118.988 46.7911 118.436 46.5802 117.859 46.4851L117.9 46.2354L117.858 46.4844Z" fill="#090814"/>
<path d="M104.537 55.9988L96.3594 76.633C95.9777 77.5958 95.2395 78.3746 94.2985 78.8073C93.3574 79.2399 92.2857 79.2933 91.3063 78.9563L31.2021 58.2769C27.8835 57.135 27.5126 52.5896 30.6025 50.925L49.9451 40.5042C50.7867 40.0508 51.7621 39.9116 52.6968 40.1115L101.636 50.5782C102.208 50.7006 102.747 50.9463 103.214 51.2981C103.682 51.65 104.067 52.0996 104.344 52.6156C104.62 53.1316 104.78 53.7016 104.813 54.2859C104.847 54.8702 104.752 55.4547 104.537 55.9988H104.537Z" fill="#F2F2F2"/>
<path d="M37.5679 22.0907C42.3707 22.0907 46.2642 18.1972 46.2642 13.3944C46.2642 8.59158 42.3707 4.69812 37.5679 4.69812C32.765 4.69812 28.8716 8.59158 28.8716 13.3944C28.8716 18.1972 32.765 22.0907 37.5679 22.0907Z" fill="#ED9DA0"/>
<path d="M39.3711 0.455723C36.9226 0.0566422 35.6078 -0.157742 34.2805 0.137605C31.6217 0.729142 30.0794 3.10626 28.9779 4.80395C26.3437 8.86392 27.5348 10.5702 24.948 16.2569C23.0926 20.3367 22.1568 20.1682 21.9793 22.3019C21.605 26.7809 25.415 31.2612 29.5091 33.0127C29.7825 33.1298 34.0371 34.9101 35.2359 33.4369C36.1147 32.3574 34.5622 30.4981 32.6906 25.483C29.3996 16.6645 30.9546 13.7173 31.4179 12.9687C31.7106 12.4965 32.5455 11.3201 33.0087 11.4844C33.4277 11.6327 33.065 12.7088 33.4329 13.6055C34.4186 16.0079 40.4097 16.5414 45.0987 14.6661C46.4818 14.113 47.3299 13.7737 47.9621 12.8632C50.1069 9.77391 47.5463 3.29939 43.5079 1.41024C42.5892 0.980296 41.5168 0.805383 39.3719 0.455723H39.3711Z" fill="#090814"/>
<path d="M33.1533 52.2693C35.2683 53.342 36.4293 55.303 35.7463 56.6489C35.0634 57.9947 32.7956 58.2158 30.6799 57.1424C29.8289 56.7252 29.0902 56.1103 28.5256 55.3491L19.6213 50.6905L21.8966 46.558L30.433 51.5893C31.381 51.5953 32.3138 51.8283 33.1533 52.2688V52.2693Z" fill="#ED9DA0"/>
<path d="M74.7976 46.2751C77.0257 47.0878 78.4123 48.8959 77.895 50.3138C77.3777 51.7317 75.1524 52.222 72.9237 51.4087C72.029 51.096 71.2222 50.5737 70.5707 49.8854L61.1741 46.323L62.9396 41.9495L72.0156 45.9256C72.9575 45.8182 73.9115 45.9381 74.7976 46.2751Z" fill="#ED9DA0"/>
<path d="M23.0387 23.1513C23.0387 23.1513 21.2357 19.4395 17.0997 22.3029C12.9637 25.1663 3.10067 37.0449 3.10067 37.0449C3.10067 37.0449 -1.98989 41.4991 0.874183 43.09C3.73826 44.6809 25.2164 53.7164 25.2164 53.7164L28.9645 50.6665L23.2731 47.137L11.0553 40.8623L21.6546 32.9084L23.0387 23.1515V23.1513Z" fill="#B256FC"/>
<path d="M41.0677 25.3786C41.0677 25.3786 42.3296 23.5756 44.5621 25.3786C46.7947 27.1815 53.2201 37.5627 53.2201 37.5627L69.066 44.044L66.7329 48.8164L47.7494 42.029L39.4773 30.7874L41.0681 25.3788L41.0677 25.3786Z" fill="#B256FC"/>
<path d="M73.8205 55.9748C75.6948 55.9748 77.2142 55.2151 77.2142 54.2779C77.2142 53.3408 75.6948 52.5811 73.8205 52.5811C71.9462 52.5811 70.4268 53.3408 70.4268 54.2779C70.4268 55.2151 71.9462 55.9748 73.8205 55.9748Z" fill="#B256FC"/>
<path d="M70.6388 61.1713C72.5131 61.1713 74.0325 60.4116 74.0325 59.4744C74.0325 58.5373 72.5131 57.7776 70.6388 57.7776C68.7645 57.7776 67.2451 58.5373 67.2451 59.4744C67.2451 60.4116 68.7645 61.1713 70.6388 61.1713Z" fill="#3F3D56"/>
<path d="M52.3975 57.0886C57.4932 57.0886 61.6241 55.0231 61.6241 52.4752C61.6241 49.9273 57.4932 47.8618 52.3975 47.8618C47.3018 47.8618 43.1709 49.9273 43.1709 52.4752C43.1709 55.0231 47.3018 57.0886 52.3975 57.0886Z" fill="#B256FC"/>
<path d="M52.9679 57.3324C52.9779 57.3324 52.9879 57.3318 52.9979 57.3305C53.0645 57.3226 53.1253 57.2886 53.1668 57.2359C53.2084 57.1832 53.2273 57.1161 53.2194 57.0495L52.6496 52.2325C52.6457 52.1995 52.6352 52.1676 52.619 52.1386C52.6027 52.1096 52.5809 52.0841 52.5547 52.0635C52.5286 52.0429 52.4986 52.0278 52.4666 52.0188C52.4346 52.0098 52.4011 52.0072 52.3681 52.0112L43.3088 53.1007C43.2422 53.1087 43.1814 53.1428 43.14 53.1956C43.0985 53.2484 43.0797 53.3155 43.0877 53.3821C43.0958 53.4487 43.1299 53.5095 43.1827 53.5509C43.2355 53.5924 43.3025 53.6112 43.3692 53.6032L52.1768 52.5441L52.7174 57.1087C52.7246 57.1702 52.754 57.2269 52.8002 57.2681C52.8463 57.3093 52.906 57.3322 52.9679 57.3324Z" fill="white"/>
</svg>
