<svg width="51" height="47" viewBox="0 0 51 47" fill="none" xmlns="http://www.w3.org/2000/svg">
<path d="M39.4053 4.35156C41.1165 4.3516 42.5038 5.73901 42.5039 7.4502V41.1514C42.5039 42.8626 41.1165 44.25 39.4053 44.25H3.34863C1.63733 44.25 0.25 42.8627 0.25 41.1514V7.4502C0.250108 5.73898 1.63739 4.35156 3.34863 4.35156H39.4053ZM37.8682 4.75293C32.0692 9.86129 28.7589 13.9621 24.1143 18.4453L20.7666 14.6826C18.2508 11.9566 13.895 11.6924 11.0381 14.0928C8.18116 16.4934 7.90407 20.6499 10.4199 23.376L19.7393 33.4502C21.0523 34.8729 22.9449 35.686 24.9316 35.6807C26.9184 35.6753 28.8067 34.8517 30.1113 33.4219L42.5029 19.9785V11.334C42.5029 6.03326 37.9012 4.76198 37.8682 4.75293Z" fill="url(#paint0_linear_1404_3401)"/>
<path d="M39.4053 4.35156L39.4053 4.10156H39.4053V4.35156ZM42.5039 7.4502H42.7539V7.45018L42.5039 7.4502ZM39.4053 44.25V44.5H39.4053L39.4053 44.25ZM0.25 7.4502L0 7.45018V7.4502H0.25ZM37.8682 4.75293L37.9343 4.51183L37.8042 4.47615L37.7029 4.56534L37.8682 4.75293ZM24.1143 18.4453L23.9275 18.6115L24.1005 18.806L24.2879 18.6252L24.1143 18.4453ZM20.7666 14.6826L20.9534 14.5164L20.9503 14.5131L20.7666 14.6826ZM11.0381 14.0928L10.8773 13.9014L10.8773 13.9014L11.0381 14.0928ZM10.4199 23.376L10.2362 23.5455L10.2364 23.5457L10.4199 23.376ZM19.7393 33.4502L19.923 33.2806L19.9228 33.2804L19.7393 33.4502ZM24.9316 35.6807L24.9323 35.9307H24.9323L24.9316 35.6807ZM30.1113 33.4219L29.9275 33.2524L29.9267 33.2534L30.1113 33.4219ZM42.5029 19.9785L42.6868 20.148L42.7529 20.0762V19.9785H42.5029ZM39.4053 4.35156L39.4053 4.60156C40.9784 4.6016 42.2538 5.87707 42.2539 7.45021L42.5039 7.4502L42.7539 7.45018C42.7538 5.60094 41.2546 4.1016 39.4053 4.10156L39.4053 4.35156ZM42.5039 7.4502H42.2539V41.1514H42.5039H42.7539V7.4502H42.5039ZM42.5039 41.1514H42.2539C42.2539 42.7246 40.9785 44 39.4053 44L39.4053 44.25L39.4053 44.5C41.2546 44.5 42.7539 43.0007 42.7539 41.1514H42.5039ZM39.4053 44.25V44H3.34863V44.25V44.5H39.4053V44.25ZM3.34863 44.25V44C1.7754 44 0.5 42.7246 0.5 41.1514H0.25H0C0 43.0007 1.49926 44.5 3.34863 44.5V44.25ZM0.25 41.1514H0.5V7.4502H0.25H0V41.1514H0.25ZM0.25 7.4502L0.5 7.45021C0.5001 5.87704 1.77548 4.60156 3.34863 4.60156V4.35156V4.10156C1.49931 4.10156 0.000117064 5.60092 0 7.45018L0.25 7.4502ZM3.34863 4.35156V4.60156H39.4053V4.35156V4.10156H3.34863V4.35156ZM37.8682 4.75293L37.7029 4.56534C34.7959 7.12616 32.5131 9.43412 30.3779 11.6605C28.2413 13.8884 26.2584 16.0283 23.9406 18.2654L24.1143 18.4453L24.2879 18.6252C26.6148 16.3791 28.6093 14.227 30.7388 12.0066C32.8697 9.7847 35.1415 7.48806 38.0334 4.94052L37.8682 4.75293ZM24.1143 18.4453L24.301 18.2791L20.9534 14.5164L20.7666 14.6826L20.5798 14.8488L23.9275 18.6115L24.1143 18.4453ZM20.7666 14.6826L20.9503 14.5131C18.3431 11.688 13.8355 11.4159 10.8773 13.9014L11.0381 14.0928L11.1989 14.2842C13.9546 11.9689 18.1585 12.2253 20.5829 14.8522L20.7666 14.6826ZM11.0381 14.0928L10.8773 13.9014C7.91231 16.3928 7.62258 20.7135 10.2362 23.5455L10.4199 23.376L10.6036 23.2064C8.18557 20.5863 8.45001 16.5941 11.1989 14.2842L11.0381 14.0928ZM10.4199 23.376L10.2364 23.5457L19.5557 33.62L19.7393 33.4502L19.9228 33.2804L10.6034 23.2062L10.4199 23.376ZM19.7393 33.4502L19.5555 33.6197C20.9174 35.0954 22.8777 35.9361 24.9323 35.9307L24.9316 35.6807L24.931 35.4307C23.0122 35.4358 21.1871 34.6504 19.923 33.2806L19.7393 33.4502ZM24.9316 35.6807L24.9323 35.9307C26.9871 35.9251 28.9428 35.0735 30.296 33.5904L30.1113 33.4219L29.9267 33.2534C28.6706 34.6299 26.8498 35.4255 24.931 35.4307L24.9316 35.6807ZM30.1113 33.4219L30.2951 33.5913L42.6868 20.148L42.5029 19.9785L42.3191 19.8091L29.9275 33.2524L30.1113 33.4219ZM42.5029 19.9785H42.7529V11.334H42.5029H42.2529V19.9785H42.5029ZM42.5029 11.334H42.7529C42.7529 8.59958 41.5616 6.89025 40.3598 5.86861C39.1659 4.8536 37.9678 4.52101 37.9343 4.51183L37.8682 4.75293L37.8021 4.99403C37.8016 4.99389 38.9208 5.30147 40.036 6.24955C41.1434 7.19099 42.2529 8.76766 42.2529 11.334H42.5029Z" fill="white"/>
<path fill-rule="evenodd" clip-rule="evenodd" d="M48.7315 1.27703C50.5308 2.79225 50.7195 5.43142 49.153 7.17178L27.2514 30.3656C26.4338 31.2739 25.2508 31.7968 24.0057 31.8002C22.7606 31.8036 21.5746 31.2872 20.7517 30.3834L12.3279 20.7953C10.7512 19.0636 10.9245 16.4234 12.7149 14.8983C14.5052 13.3733 17.2348 13.5409 18.8114 15.2726L23.9749 21.2797L42.6372 1.68468C44.2037 -0.055675 46.9323 -0.238186 48.7315 1.27703Z" fill="url(#paint1_linear_1404_3401)" stroke="white" stroke-width="0.5"/>
<defs>
<linearGradient id="paint0_linear_1404_3401" x1="4.1667" y1="0.734122" x2="57.7592" y2="18.8646" gradientUnits="userSpaceOnUse">
<stop stop-color="#C54A92"/>
<stop offset="1" stop-color="#2E62EB"/>
</linearGradient>
<linearGradient id="paint1_linear_1404_3401" x1="14.6959" y1="2.30676" x2="55.6701" y2="18.5453" gradientUnits="userSpaceOnUse">
<stop stop-color="#C54A92"/>
<stop offset="1" stop-color="#2E62EB"/>
</linearGradient>
</defs>
</svg>
