<svg width="51" height="33" viewBox="0 0 51 33" fill="none" xmlns="http://www.w3.org/2000/svg">
<path d="M34.2109 0.25H27.5C26.875 0.25 26.2734 0.499476 25.8125 0.948531L18.1328 8.4328C18.125 8.44111 18.1172 8.45774 18.1094 8.46606C16.8125 9.76333 16.8359 11.834 17.9453 13.1229C18.9375 14.2788 21.0234 14.5865 22.3281 13.3475C22.3359 13.3391 22.3516 13.3391 22.3594 13.3308L28.6016 7.24363C29.1094 6.75299 29.9062 6.78626 30.3672 7.32679C30.8359 7.86732 30.7969 8.70722 30.2891 9.20617L28.25 11.1937L39.625 21.023C39.8516 21.2226 40.0547 21.4388 40.2422 21.6633V5.57214L35.9766 1.03169C35.5156 0.532739 34.875 0.25 34.2109 0.25V0.25ZM42.75 5.58877V24.208C42.75 25.6799 43.8672 26.869 45.25 26.869H50.25V5.58877H42.75ZM46.5 24.208C45.8125 24.208 45.25 23.6092 45.25 22.8774C45.25 22.1456 45.8125 21.5469 46.5 21.5469C47.1875 21.5469 47.75 22.1456 47.75 22.8774C47.75 23.6092 47.1875 24.208 46.5 24.208ZM0.25 26.8607H5.25C6.63281 26.8607 7.75 25.6716 7.75 24.1996V5.58877H0.25V26.8607ZM4 21.5469C4.6875 21.5469 5.25 22.1456 5.25 22.8774C5.25 23.6092 4.6875 24.208 4 24.208C3.3125 24.208 2.75 23.6092 2.75 22.8774C2.75 22.1373 3.3125 21.5469 4 21.5469ZM38.0547 23.0936L26.3906 13.0148L24.0469 15.3017C21.7266 17.5553 18.1719 17.3391 16.1016 14.9358C14 12.4909 14.1641 8.70722 16.4453 6.47857L22.8359 0.25H16.2891C15.625 0.25 14.9922 0.532739 14.5234 1.03169L10.25 5.57214V24.1913H11.6797L18.75 31.002C20.8906 32.8564 24.0391 32.5072 25.7812 30.2286L25.7969 30.212L27.1953 31.501C28.4375 32.582 30.2734 32.3741 31.2813 31.0519L33.7344 27.842L34.1562 28.2079C35.2266 29.1309 36.8047 28.9646 37.6719 27.817L38.4141 26.8441C39.2891 25.6965 39.125 24.025 38.0547 23.0936V23.0936Z" fill="url(#paint0_linear_1404_5082)" stroke="white" stroke-width="0.5"/>
<defs>
<linearGradient id="paint0_linear_1404_5082" x1="4.88472" y1="-2.64628" x2="61.4249" y2="25.6238" gradientUnits="userSpaceOnUse">
<stop stop-color="#C54A92"/>
<stop offset="1" stop-color="#2E62EB"/>
</linearGradient>
</defs>
</svg>
