<svg width="50" height="50" viewBox="0 0 50 50" fill="none" xmlns="http://www.w3.org/2000/svg">
<path d="M29.1434 24.9224C28.7528 26.6412 29.8466 28.4381 31.6434 28.8287C33.4403 29.2193 35.2372 28.1256 35.6278 26.4068L40.3934 5.93806C40.7841 4.21931 39.6903 2.42244 37.8934 2.03181C36.0966 1.64119 34.2997 2.73494 33.9091 4.45369L29.1434 24.9224Z" fill="url(#paint0_linear_1404_3441)" stroke="white" stroke-width="0.5"/>
<path d="M35.3163 26.9519C35.3163 26.9519 28.5194 20.2331 16.4882 23.5925C16.4882 23.5925 9.37881 24.8425 9.76943 28.4362C9.76943 28.4362 9.53506 37.3425 12.5819 42.655C16.3477 49.1015 29.9355 50.2015 36.7035 42.655C38.2197 40.9644 38.076 39.4452 38.891 36.7714C38.891 33.9677 38.891 27.4259 35.3163 26.9519Z" fill="url(#paint1_linear_1404_3441)" stroke="white" stroke-width="0.5"/>
<path d="M23.2045 26.0931C23.517 27.89 25.3139 28.9838 27.1108 28.6713C28.9077 28.3588 30.1577 26.64 29.8452 24.8431L25.9389 4.21813C25.6264 2.42125 23.8295 1.3275 22.0327 1.64C20.2358 1.9525 18.9858 3.67125 19.3764 5.46813L23.2045 26.0931" fill="url(#paint2_linear_1404_3441)"/>
<path d="M23.2045 26.0931C23.517 27.89 25.3139 28.9838 27.1108 28.6713C28.9077 28.3588 30.1577 26.64 29.8452 24.8431L25.9389 4.21813C25.6264 2.42125 23.8295 1.3275 22.0327 1.64C20.2358 1.9525 18.9858 3.67125 19.3764 5.46813L23.2045 26.0931" stroke="white" stroke-width="0.5"/>
<path d="M9.38033 25.0791C9.14595 23.2822 10.4741 21.6416 12.3491 21.4072H12.4272C14.2241 21.251 15.9428 22.501 16.0991 24.376L16.6459 29.4541C16.8803 31.2509 15.5522 32.8916 13.6772 33.1259H13.5991C11.7241 33.2822 10.0835 32.0322 9.9272 30.1572L9.38033 25.0791" fill="url(#paint3_linear_1404_3441)"/>
<path d="M9.38033 25.0791C9.14595 23.2822 10.4741 21.6416 12.3491 21.4072H12.4272C14.2241 21.251 15.9428 22.501 16.0991 24.376L16.6459 29.4541C16.8803 31.2509 15.5522 32.8916 13.6772 33.1259H13.5991C11.7241 33.2822 10.0835 32.0322 9.9272 30.1572L9.38033 25.0791" stroke="white" stroke-width="0.5"/>
<path d="M15.7026 21.4072C15.4682 19.6103 16.7963 17.9697 18.6713 17.7353H18.7495C20.6245 17.5791 22.2651 18.8291 22.4213 20.7041L22.9682 25.7822C23.2026 27.5791 21.8745 29.2197 19.9995 29.4541H19.9213C18.0463 29.6103 16.4057 28.3603 16.2495 26.4853L15.7026 21.4072" fill="url(#paint4_linear_1404_3441)"/>
<path d="M15.7026 21.4072C15.4682 19.6103 16.7963 17.9697 18.6713 17.7353H18.7495C20.6245 17.5791 22.2651 18.8291 22.4213 20.7041L22.9682 25.7822C23.2026 27.5791 21.8745 29.2197 19.9995 29.4541H19.9213C18.0463 29.6103 16.4057 28.3603 16.2495 26.4853L15.7026 21.4072" stroke="white" stroke-width="0.5"/>
<path d="M12.5645 32.0332C14.4395 31.7988 15.6895 30.2363 15.5332 28.3613L14.9863 23.2832C14.9082 22.8145 14.6738 22.2676 14.4395 21.7988C15.6113 22.3457 16.002 23.2832 16.1582 24.377L16.7051 29.4551C16.9395 31.252 15.6113 32.8926 13.8145 33.0488C12.4863 33.2051 11.2363 32.502 10.6113 31.4863C11.0801 31.877 11.7832 32.1113 12.5645 32.0332" fill="white"/>
<path d="M18.8047 28.3608C20.6797 28.1265 22.0078 26.564 21.7734 24.7671L21.2266 19.689C21.1484 19.2202 20.9141 18.5952 20.6797 18.2046C21.7734 18.8296 22.2422 19.7671 22.3984 20.8608L22.9453 25.939C23.1797 27.7358 21.8516 29.2983 19.9766 29.5327H19.8984C18.5703 29.689 17.3203 28.9858 16.6953 27.9702C17.3203 28.2827 18.0234 28.439 18.8047 28.3608" fill="white"/>
<path d="M32.3337 31.8762C28.5837 30.0794 20.0681 33.2044 21.7868 41.0169C21.7868 32.8919 29.1306 31.4856 32.3337 31.8762Z" fill="white"/>
<path d="M30.9192 23.8292C28.1848 22.1886 27.716 24.7667 23.1067 24.923C21.0754 25.0011 20.216 29.1417 23.2629 30.6261C27.4817 32.7355 27.7942 29.7667 28.8879 30.9386C29.9817 32.1886 30.9973 32.4229 31.9348 33.8292C32.6379 34.8448 37.8723 33.2823 38.4192 31.173C39.4348 27.0323 35.1379 26.4073 30.9192 23.8292Z" fill="white"/>
<path d="M31.2509 24.5318C28.4384 22.8912 27.8915 25.4693 23.1259 25.6256C21.0165 25.7037 20.079 30.0006 23.2821 31.5631C27.6571 33.7506 28.0477 30.6256 29.0634 31.8756C30.2352 33.1256 31.2509 33.4381 32.2665 34.9225C32.9696 36.0162 31.0946 40.0787 31.0946 40.0787C31.0946 40.0787 36.4852 43.9068 37.579 41.7193C39.6102 37.6568 39.0634 34.5318 38.9852 32.1881C38.829 26.6412 35.704 27.1881 31.2509 24.5318" fill="url(#paint5_linear_1404_3441)"/>
<path d="M31.2509 24.5318C28.4384 22.8912 27.8915 25.4693 23.1259 25.6256C21.0165 25.7037 20.079 30.0006 23.2821 31.5631C27.6571 33.7506 28.0477 30.6256 29.0634 31.8756C30.2352 33.1256 31.2509 33.4381 32.2665 34.9225C32.9696 36.0162 31.0946 40.0787 31.0946 40.0787C31.0946 40.0787 36.4852 43.9068 37.579 41.7193C39.6102 37.6568 39.0634 34.5318 38.9852 32.1881C38.829 26.6412 35.704 27.1881 31.2509 24.5318" stroke="white" stroke-width="0.5"/>
<defs>
<linearGradient id="paint0_linear_1404_3441" x1="30.1219" y1="-0.491291" x2="45.9577" y2="1.64962" gradientUnits="userSpaceOnUse">
<stop stop-color="#C54A92"/>
<stop offset="1" stop-color="#2E62EB"/>
</linearGradient>
<linearGradient id="paint1_linear_1404_3441" x1="12.5338" y1="20.3144" x2="49.7816" y2="34.1552" gradientUnits="userSpaceOnUse">
<stop stop-color="#C54A92"/>
<stop offset="1" stop-color="#2E62EB"/>
</linearGradient>
<linearGradient id="paint2_linear_1404_3441" x1="20.2862" y1="-0.873534" x2="35.024" y2="0.963387" gradientUnits="userSpaceOnUse">
<stop stop-color="#C54A92"/>
<stop offset="1" stop-color="#2E62EB"/>
</linearGradient>
<linearGradient id="paint3_linear_1404_3441" x1="10.032" y1="20.3292" x2="19.9834" y2="22.3102" gradientUnits="userSpaceOnUse">
<stop stop-color="#C54A92"/>
<stop offset="1" stop-color="#2E62EB"/>
</linearGradient>
<linearGradient id="paint4_linear_1404_3441" x1="16.3542" y1="16.6573" x2="26.3057" y2="18.6383" gradientUnits="userSpaceOnUse">
<stop stop-color="#C54A92"/>
<stop offset="1" stop-color="#2E62EB"/>
</linearGradient>
<linearGradient id="paint5_linear_1404_3441" x1="22.8612" y1="22.3189" x2="45.9458" y2="29.4938" gradientUnits="userSpaceOnUse">
<stop stop-color="#C54A92"/>
<stop offset="1" stop-color="#2E62EB"/>
</linearGradient>
</defs>
</svg>
