<svg
  width="162"
  height="140"
  viewBox="0 0 162 140"
  fill="none"
  xmlns="http://www.w3.org/2000/svg"
>
  <g clipPath="url(#clip0_793_9645)">
    <path
      d="M70.0274 86.9357C72.617 90.9541 67.9233 82.5601 79.565 103.267L75.0173 105.839L64.9377 87.599C64.9377 87.599 69.8067 86.5932 70.0274 86.9357Z"
      fill="#ED9DA0"
    />
    <path
      d="M77.1947 104.37C77.1947 104.37 77.17 100.679 79.8583 102.067L85.2343 104.845C85.2343 104.845 91.2518 103.356 89.5079 106.9C87.7641 110.444 79.5279 111.576 79.5279 111.576C79.5279 111.576 73.2591 112.206 73.4559 110.598C73.6526 108.99 73.3427 103.749 74.2101 104.436C75.0775 105.122 77.1947 104.37 77.1947 104.37Z"
      fill="#090814"
    />
    <path
      d="M57.59 105.492C55.9352 109.853 59.7327 101.42 50.3937 122.282L46.3809 119.206L54.6909 100.996C54.6909 100.996 57.7311 105.12 57.59 105.492Z"
      fill="#ED9DA0"
    />
    <path
      d="M145.924 84.2642C145.924 82.946 145.538 81.8763 145.064 81.874H15.8983C15.4224 81.8765 15.0386 82.9463 15.0364 84.2642V138.527C15.0364 138.649 14.9967 138.767 14.925 138.858C14.8533 138.949 14.7547 139.005 14.6485 139.017C14.302 139.056 13.9553 139.091 13.6085 139.124C13.6 139.124 13.5913 139.126 13.5828 139.126C13.3941 139.146 13.2055 139.161 13.016 139.178H13.0144C12.9173 138.972 12.8214 138.764 12.7265 138.555C12.6945 138.485 12.6777 138.406 12.6777 138.327V81.1641C12.6777 80.8 12.6907 80.4336 12.7119 80.0728C12.7425 79.5764 12.7962 79.0821 12.8727 78.5923C13.235 76.3077 14.054 74.761 14.9843 74.7559H145.976C146.111 74.7569 146.246 74.7895 146.37 74.8518C146.553 74.9447 146.718 75.0775 146.856 75.2428C147.044 75.467 147.205 75.7193 147.334 75.9928C147.793 76.92 148.121 78.302 148.237 79.9105C148.237 79.9253 148.239 79.94 148.239 79.9548C148.269 80.3533 148.284 80.7589 148.282 81.1648L148.312 86.4358L148.332 89.5786L148.39 99.4401L148.411 102.942L148.506 138.896C148.506 139.027 148.461 139.152 148.38 139.244C148.3 139.336 148.191 139.388 148.077 139.388H146.353C146.24 139.388 146.131 139.336 146.05 139.244C145.97 139.152 145.925 139.027 145.925 138.896L145.924 84.2642Z"
      fill="#E6E6E6"
    />
    <path
      d="M110.825 50.0947H96.9075C96.7106 50.0951 96.5219 50.1851 96.3829 50.345C96.2439 50.5049 96.1659 50.7215 96.166 50.9474V76.168H111.569V50.9476C111.569 50.8356 111.55 50.7247 111.512 50.6213C111.475 50.5178 111.42 50.4238 111.351 50.3446C111.282 50.2654 111.2 50.2026 111.11 50.1598C111.02 50.117 110.923 50.0949 110.825 50.095V50.0947ZM103.913 64.4247C103.478 64.4224 103.061 64.223 102.753 63.87C102.446 63.5169 102.272 63.0388 102.27 62.5395V59.6307C102.27 59.1307 102.443 58.6512 102.751 58.2977C103.059 57.9441 103.477 57.7455 103.913 57.7455C104.349 57.7455 104.767 57.9441 105.075 58.2977C105.384 58.6512 105.557 59.1307 105.557 59.6307V62.5397C105.555 63.039 105.381 63.5172 105.073 63.8702C104.765 64.2233 104.349 64.4226 103.913 64.425V64.4247Z"
      fill="#2F2E41"
    />
    <path
      d="M96.1191 75.3613V77.7946C96.1194 77.9207 96.1631 78.0415 96.2409 78.1307C96.3186 78.2199 96.424 78.2701 96.5339 78.2703H111.203C111.313 78.2697 111.418 78.2194 111.496 78.1303C111.573 78.0412 111.617 77.9206 111.618 77.7946V75.3613H96.1191Z"
      fill="#3F3D56"
    />
    <path
      d="M78.2365 14.9734C78.0763 15.436 77.8297 15.8526 77.5139 16.194C77.1981 16.5354 76.821 16.7932 76.409 16.9493C75.9969 17.1054 75.5601 17.156 75.1292 17.0975C74.6983 17.039 74.2839 16.8728 73.915 16.6107L54.2691 32.3102L53.7266 26.0538L73.0432 11.6978C73.4681 11.016 74.0963 10.5368 74.8088 10.3509C75.5212 10.165 76.2683 10.2854 76.9085 10.6892C77.5487 11.0931 78.0375 11.7523 78.2823 12.5419C78.5271 13.3316 78.5108 14.1969 78.2365 14.9737V14.9734Z"
      fill="#FFB6B6"
    />
    <path
      d="M34.2509 24.8719C34.2509 24.8719 32.1237 28.4775 35.4618 31.6684C38.8 34.8593 52.3299 34.2245 54.5135 34.1971C56.697 34.1697 66.7149 22.2819 66.7149 22.2819L66.6499 15.416L54.5546 23.6487L34.2509 24.8719Z"
      fill="#B256FC"
    />
    <path
      d="M33.0457 48.8104L33.2601 53.4829C33.2601 53.4829 32.6273 57.6219 33.1478 58.5152C33.6643 59.4038 47.8479 60.726 47.8479 60.726C47.8479 60.726 47.4026 53.7574 48.2054 48.7168L33.0457 48.8104Z"
      fill="#ED9DA0"
    />
    <path
      d="M76.5761 96.3853L71.1164 101.868L60.4157 76.7635C49.8045 78.857 39.7937 79.5267 31.1348 76.9957C28.2031 76.15 26.4111 72.6768 27.1321 69.2402C27.1659 69.0795 27.2049 68.9205 27.2491 68.7633C28.2853 65.1363 30.998 62.57 33.1354 58.5811L48.7464 58.853L47.0028 65.7542L62.1679 63.503C65.2176 63.0502 68.0029 65.5826 68.3889 69.1587C68.4093 69.3476 68.4228 69.5372 68.4294 69.7276L76.5761 96.3853Z"
      fill="#090814"
    />
    <path
      d="M39.1416 17.3659C42.6425 17.3659 45.4805 14.1105 45.4805 10.0946C45.4805 6.07874 42.6425 2.82324 39.1416 2.82324C35.6407 2.82324 32.8027 6.07874 32.8027 10.0946C32.8027 14.1105 35.6407 17.3659 39.1416 17.3659Z"
      fill="#ED9DA0"
    />
    <path
      d="M35.4258 19.9912L41.238 20.7756C41.4831 20.8087 41.7131 20.9286 41.8959 21.1188C42.0787 21.3089 42.2053 21.5597 42.258 21.8363L43.1823 26.6893L48.9442 34.4728C48.9442 34.4728 51.0134 38.923 50.2375 43.9666C49.7706 47.0037 48.9628 49.9587 47.8344 52.7579C47.8344 52.7579 33.6648 59.4058 33.147 58.5165C32.6292 57.6272 32.4618 53.5836 32.4618 53.5836L30.6389 30.3167C30.5346 29.0909 30.668 27.8538 31.0296 26.6941C31.3912 25.5345 31.972 24.4809 32.7304 23.6091C33.1903 23.0902 33.6443 22.7268 34.0137 22.7268C34.8483 22.6936 34.7414 20.5397 35.4258 19.9912Z"
      fill="#B256FC"
    />
    <path
      d="M54.3579 116.226L48.8168 113.813L56.422 87.611C46.09 84.1362 38.2965 78.539 31.4916 71.8953C29.184 69.6564 27.4519 66.7813 29.418 64.0578C29.5099 63.9304 29.6059 63.8073 29.7059 63.6884C32.0275 60.9542 37.9194 61.4804 41.3687 58.9766L49.0822 68.4239L48.5988 70.9548L63.0807 76.5862C65.9932 77.7186 67.5233 81.3983 66.4984 84.8047C66.4445 84.9845 66.3837 85.1616 66.3163 85.3357L54.3579 116.226Z"
      fill="#090814"
    />
    <path
      d="M38.739 76.8732C38.3755 76.6015 38.0683 76.2416 37.8391 75.819C37.6099 75.3964 37.4642 74.9212 37.4124 74.427C37.3606 73.9328 37.4039 73.4316 37.5393 72.9587C37.6746 72.4858 37.8987 72.0527 38.1957 71.6898L28.6709 46.4912L34.1244 47.1202L42.5666 71.6826C43.065 72.2954 43.35 73.0967 43.3678 73.9345C43.3855 74.7723 43.1347 75.5885 42.6629 76.2283C42.191 76.8682 41.531 77.2872 40.8078 77.4061C40.0846 77.5249 39.3485 77.3353 38.739 76.8732Z"
      fill="#ED9DA0"
    />
    <path
      d="M38.9906 25.4548C38.9906 25.4548 36.3307 22.3489 32.9432 25.4706C29.5556 28.5923 27.4189 43.9306 27.01 46.3919C26.6011 48.8532 34.7753 62.4703 34.7753 62.4703L40.6549 63.756L36.0153 48.526L38.9906 25.4548Z"
      fill="#B256FC"
    />
    <path
      d="M133.873 10.7354H74.3795C73.8683 10.7363 73.3783 10.9696 73.0168 11.3842C72.6554 11.7989 72.452 12.3609 72.4512 12.9473V58.9996C72.4517 59.586 72.655 60.1483 73.0165 60.563C73.378 60.9777 73.8682 61.211 74.3795 61.2115H133.873C134.384 61.211 134.875 60.9777 135.236 60.563C135.598 60.1483 135.801 59.586 135.801 58.9996V12.9473C135.801 12.3609 135.597 11.7989 135.236 11.3842C134.874 10.9696 134.384 10.7363 133.873 10.7354Z"
      fill="#3F3D56"
    />
    <path
      d="M133.376 12.334H74.8759C74.6024 12.3347 74.3402 12.4597 74.147 12.6817C73.9537 12.9036 73.845 13.2045 73.8447 13.5182V58.4301C73.845 58.7437 73.9538 59.0444 74.1471 59.2661C74.3404 59.4879 74.6025 59.6126 74.8759 59.613H133.376C133.649 59.6126 133.912 59.4879 134.105 59.2661C134.298 59.0444 134.407 58.7437 134.407 58.4301V13.5191C134.407 13.2054 134.298 12.9046 134.105 12.6826C133.912 12.4606 133.65 12.3356 133.376 12.3349V12.334Z"
      fill="white"
    />
    <path
      d="M121.982 79.1169H87.1773C87.082 79.1171 86.9878 79.0928 86.9017 79.0459C86.8156 78.999 86.7397 78.9306 86.6795 78.8457C86.6194 78.7609 86.5766 78.6616 86.5541 78.5554C86.5317 78.4491 86.5302 78.3383 86.5498 78.2313L87.0899 75.2891C87.1206 75.1245 87.1995 74.9769 87.3135 74.8708C87.4275 74.7648 87.5696 74.7066 87.7164 74.7061H121.44C121.587 74.7067 121.729 74.7648 121.843 74.8709C121.957 74.9769 122.036 75.1245 122.067 75.2891L122.607 78.2313C122.626 78.3383 122.625 78.4491 122.602 78.5554C122.58 78.6616 122.537 78.7609 122.477 78.8457C122.417 78.9306 122.341 78.999 122.255 79.0459C122.169 79.0928 122.074 79.1171 121.979 79.1169H121.982Z"
      fill="#2F2E41"
    />
    <path
      d="M88.9371 75.2363H88.0626C88.0081 75.2363 87.9639 75.2871 87.9639 75.3496V75.8607C87.9639 75.9233 88.0081 75.974 88.0626 75.974H88.9371C88.9917 75.974 89.0359 75.9233 89.0359 75.8607V75.3496C89.0359 75.2871 88.9917 75.2363 88.9371 75.2363Z"
      fill="#3F3D56"
    />
    <path
      d="M91.0816 75.2363H90.2072C90.1526 75.2363 90.1084 75.2871 90.1084 75.3496V75.8607C90.1084 75.9233 90.1526 75.974 90.2072 75.974H91.0816C91.1362 75.974 91.1804 75.9233 91.1804 75.8607V75.3496C91.1804 75.2871 91.1362 75.2363 91.0816 75.2363Z"
      fill="#3F3D56"
    />
    <path
      d="M93.2252 75.2363H92.3507C92.2962 75.2363 92.252 75.2871 92.252 75.3496V75.8607C92.252 75.9233 92.2962 75.974 92.3507 75.974H93.2252C93.2798 75.974 93.324 75.9233 93.324 75.8607V75.3496C93.324 75.2871 93.2798 75.2363 93.2252 75.2363Z"
      fill="#3F3D56"
    />
    <path
      d="M95.3688 75.2363H94.4943C94.4397 75.2363 94.3955 75.2871 94.3955 75.3496V75.8607C94.3955 75.9233 94.4397 75.974 94.4943 75.974H95.3688C95.4233 75.974 95.4675 75.9233 95.4675 75.8607V75.3496C95.4675 75.2871 95.4233 75.2363 95.3688 75.2363Z"
      fill="#3F3D56"
    />
    <path
      d="M97.5133 75.2363H96.6388C96.5843 75.2363 96.54 75.2871 96.54 75.3496V75.8607C96.54 75.9233 96.5843 75.974 96.6388 75.974H97.5133C97.5678 75.974 97.6121 75.9233 97.6121 75.8607V75.3496C97.6121 75.2871 97.5678 75.2363 97.5133 75.2363Z"
      fill="#3F3D56"
    />
    <path
      d="M99.6568 75.2363H98.7824C98.7278 75.2363 98.6836 75.2871 98.6836 75.3496V75.8607C98.6836 75.9233 98.7278 75.974 98.7824 75.974H99.6568C99.7114 75.974 99.7556 75.9233 99.7556 75.8607V75.3496C99.7556 75.2871 99.7114 75.2363 99.6568 75.2363Z"
      fill="#3F3D56"
    />
    <path
      d="M101.8 75.2363H100.926C100.871 75.2363 100.827 75.2871 100.827 75.3496V75.8607C100.827 75.9233 100.871 75.974 100.926 75.974H101.8C101.855 75.974 101.899 75.9233 101.899 75.8607V75.3496C101.899 75.2871 101.855 75.2363 101.8 75.2363Z"
      fill="#3F3D56"
    />
    <path
      d="M103.945 75.2363H103.07C103.016 75.2363 102.972 75.2871 102.972 75.3496V75.8607C102.972 75.9233 103.016 75.974 103.07 75.974H103.945C103.999 75.974 104.044 75.9233 104.044 75.8607V75.3496C104.044 75.2871 103.999 75.2363 103.945 75.2363Z"
      fill="#3F3D56"
    />
    <path
      d="M106.088 75.2363H105.214C105.159 75.2363 105.115 75.2871 105.115 75.3496V75.8607C105.115 75.9233 105.159 75.974 105.214 75.974H106.088C106.143 75.974 106.187 75.9233 106.187 75.8607V75.3496C106.187 75.2871 106.143 75.2363 106.088 75.2363Z"
      fill="#3F3D56"
    />
    <path
      d="M108.232 75.2363H107.358C107.303 75.2363 107.259 75.2871 107.259 75.3496V75.8607C107.259 75.9233 107.303 75.974 107.358 75.974H108.232C108.287 75.974 108.331 75.9233 108.331 75.8607V75.3496C108.331 75.2871 108.287 75.2363 108.232 75.2363Z"
      fill="#3F3D56"
    />
    <path
      d="M110.377 75.2363H109.502C109.448 75.2363 109.403 75.2871 109.403 75.3496V75.8607C109.403 75.9233 109.448 75.974 109.502 75.974H110.377C110.431 75.974 110.475 75.9233 110.475 75.8607V75.3496C110.475 75.2871 110.431 75.2363 110.377 75.2363Z"
      fill="#3F3D56"
    />
    <path
      d="M112.52 75.2363H111.646C111.591 75.2363 111.547 75.2871 111.547 75.3496V75.8607C111.547 75.9233 111.591 75.974 111.646 75.974H112.52C112.575 75.974 112.619 75.9233 112.619 75.8607V75.3496C112.619 75.2871 112.575 75.2363 112.52 75.2363Z"
      fill="#3F3D56"
    />
    <path
      d="M114.664 75.2363H113.789C113.735 75.2363 113.69 75.2871 113.69 75.3496V75.8607C113.69 75.9233 113.735 75.974 113.789 75.974H114.664C114.718 75.974 114.762 75.9233 114.762 75.8607V75.3496C114.762 75.2871 114.718 75.2363 114.664 75.2363Z"
      fill="#3F3D56"
    />
    <path
      d="M116.808 75.2363H115.934C115.879 75.2363 115.835 75.2871 115.835 75.3496V75.8607C115.835 75.9233 115.879 75.974 115.934 75.974H116.808C116.863 75.974 116.907 75.9233 116.907 75.8607V75.3496C116.907 75.2871 116.863 75.2363 116.808 75.2363Z"
      fill="#3F3D56"
    />
    <path
      d="M118.952 75.2363H118.077C118.023 75.2363 117.979 75.2871 117.979 75.3496V75.8607C117.979 75.9233 118.023 75.974 118.077 75.974H118.952C119.006 75.974 119.051 75.9233 119.051 75.8607V75.3496C119.051 75.2871 119.006 75.2363 118.952 75.2363Z"
      fill="#3F3D56"
    />
    <path
      d="M121.095 75.2363H120.221C120.166 75.2363 120.122 75.2871 120.122 75.3496V75.8607C120.122 75.9233 120.166 75.974 120.221 75.974H121.095C121.15 75.974 121.194 75.9233 121.194 75.8607V75.3496C121.194 75.2871 121.15 75.2363 121.095 75.2363Z"
      fill="#3F3D56"
    />
    <path
      d="M88.9117 76.4658H88.0373C87.9827 76.4658 87.9385 76.5166 87.9385 76.5791V77.0902C87.9385 77.1528 87.9827 77.2035 88.0373 77.2035H88.9117C88.9663 77.2035 89.0105 77.1528 89.0105 77.0902V76.5791C89.0105 76.5166 88.9663 76.4658 88.9117 76.4658Z"
      fill="#3F3D56"
    />
    <path
      d="M91.0563 76.4658H90.1818C90.1272 76.4658 90.083 76.5166 90.083 76.5791V77.0902C90.083 77.1528 90.1272 77.2035 90.1818 77.2035H91.0563C91.1108 77.2035 91.155 77.1528 91.155 77.0902V76.5791C91.155 76.5166 91.1108 76.4658 91.0563 76.4658Z"
      fill="#3F3D56"
    />
    <path
      d="M93.1998 76.4658H92.3253C92.2708 76.4658 92.2266 76.5166 92.2266 76.5791V77.0902C92.2266 77.1528 92.2708 77.2035 92.3253 77.2035H93.1998C93.2544 77.2035 93.2986 77.1528 93.2986 77.0902V76.5791C93.2986 76.5166 93.2544 76.4658 93.1998 76.4658Z"
      fill="#3F3D56"
    />
    <path
      d="M95.3434 76.4658H94.4689C94.4143 76.4658 94.3701 76.5166 94.3701 76.5791V77.0902C94.3701 77.1528 94.4143 77.2035 94.4689 77.2035H95.3434C95.3979 77.2035 95.4421 77.1528 95.4421 77.0902V76.5791C95.4421 76.5166 95.3979 76.4658 95.3434 76.4658Z"
      fill="#3F3D56"
    />
    <path
      d="M97.4879 76.4658H96.6134C96.5589 76.4658 96.5146 76.5166 96.5146 76.5791V77.0902C96.5146 77.1528 96.5589 77.2035 96.6134 77.2035H97.4879C97.5425 77.2035 97.5867 77.1528 97.5867 77.0902V76.5791C97.5867 76.5166 97.5425 76.4658 97.4879 76.4658Z"
      fill="#3F3D56"
    />
    <path
      d="M99.6315 76.4658H98.757C98.7024 76.4658 98.6582 76.5166 98.6582 76.5791V77.0902C98.6582 77.1528 98.7024 77.2035 98.757 77.2035H99.6315C99.686 77.2035 99.7302 77.1528 99.7302 77.0902V76.5791C99.7302 76.5166 99.686 76.4658 99.6315 76.4658Z"
      fill="#3F3D56"
    />
    <path
      d="M101.775 76.4658H100.901C100.846 76.4658 100.802 76.5166 100.802 76.5791V77.0902C100.802 77.1528 100.846 77.2035 100.901 77.2035H101.775C101.83 77.2035 101.874 77.1528 101.874 77.0902V76.5791C101.874 76.5166 101.83 76.4658 101.775 76.4658Z"
      fill="#3F3D56"
    />
    <path
      d="M103.92 76.4658H103.045C102.991 76.4658 102.946 76.5166 102.946 76.5791V77.0902C102.946 77.1528 102.991 77.2035 103.045 77.2035H103.92C103.974 77.2035 104.018 77.1528 104.018 77.0902V76.5791C104.018 76.5166 103.974 76.4658 103.92 76.4658Z"
      fill="#3F3D56"
    />
    <path
      d="M106.063 76.4658H105.189C105.134 76.4658 105.09 76.5166 105.09 76.5791V77.0902C105.09 77.1528 105.134 77.2035 105.189 77.2035H106.063C106.118 77.2035 106.162 77.1528 106.162 77.0902V76.5791C106.162 76.5166 106.118 76.4658 106.063 76.4658Z"
      fill="#3F3D56"
    />
    <path
      d="M108.207 76.4658H107.332C107.278 76.4658 107.233 76.5166 107.233 76.5791V77.0902C107.233 77.1528 107.278 77.2035 107.332 77.2035H108.207C108.261 77.2035 108.305 77.1528 108.305 77.0902V76.5791C108.305 76.5166 108.261 76.4658 108.207 76.4658Z"
      fill="#3F3D56"
    />
    <path
      d="M110.351 76.4658H109.477C109.422 76.4658 109.378 76.5166 109.378 76.5791V77.0902C109.378 77.1528 109.422 77.2035 109.477 77.2035H110.351C110.406 77.2035 110.45 77.1528 110.45 77.0902V76.5791C110.45 76.5166 110.406 76.4658 110.351 76.4658Z"
      fill="#3F3D56"
    />
    <path
      d="M112.495 76.4658H111.62C111.566 76.4658 111.521 76.5166 111.521 76.5791V77.0902C111.521 77.1528 111.566 77.2035 111.62 77.2035H112.495C112.549 77.2035 112.594 77.1528 112.594 77.0902V76.5791C112.594 76.5166 112.549 76.4658 112.495 76.4658Z"
      fill="#3F3D56"
    />
    <path
      d="M114.638 76.4658H113.764C113.709 76.4658 113.665 76.5166 113.665 76.5791V77.0902C113.665 77.1528 113.709 77.2035 113.764 77.2035H114.638C114.693 77.2035 114.737 77.1528 114.737 77.0902V76.5791C114.737 76.5166 114.693 76.4658 114.638 76.4658Z"
      fill="#3F3D56"
    />
    <path
      d="M116.783 76.4658H115.908C115.854 76.4658 115.81 76.5166 115.81 76.5791V77.0902C115.81 77.1528 115.854 77.2035 115.908 77.2035H116.783C116.837 77.2035 116.882 77.1528 116.882 77.0902V76.5791C116.882 76.5166 116.837 76.4658 116.783 76.4658Z"
      fill="#3F3D56"
    />
    <path
      d="M118.926 76.4658H118.052C117.997 76.4658 117.953 76.5166 117.953 76.5791V77.0902C117.953 77.1528 117.997 77.2035 118.052 77.2035H118.926C118.981 77.2035 119.025 77.1528 119.025 77.0902V76.5791C119.025 76.5166 118.981 76.4658 118.926 76.4658Z"
      fill="#3F3D56"
    />
    <path
      d="M121.07 76.4658H120.195C120.141 76.4658 120.097 76.5166 120.097 76.5791V77.0902C120.097 77.1528 120.141 77.2035 120.195 77.2035H121.07C121.124 77.2035 121.169 77.1528 121.169 77.0902V76.5791C121.169 76.5166 121.124 76.4658 121.07 76.4658Z"
      fill="#3F3D56"
    />
    <path
      d="M106.706 77.9414H98.3283C98.2737 77.9414 98.2295 77.9921 98.2295 78.0547V78.5658C98.2295 78.6284 98.2737 78.6791 98.3283 78.6791H106.706C106.761 78.6791 106.805 78.6284 106.805 78.5658V78.0547C106.805 77.9921 106.761 77.9414 106.706 77.9414Z"
      fill="#3F3D56"
    />
    <path
      d="M161.306 139.504L0.693506 139.58C0.310522 139.58 0 139.449 0 139.287C0 139.126 0.310522 138.994 0.693506 138.994L161.306 138.919C161.689 138.919 162 139.05 162 139.212C162 139.373 161.689 139.504 161.306 139.504Z"
      fill="#F2F2F2"
    />
    <path
      d="M134.407 13.5189V58.4299C134.407 58.7435 134.298 59.0441 134.105 59.2659C133.912 59.4876 133.649 59.6123 133.376 59.6127H112.748C110.466 57.185 108.593 54.2954 107.225 51.0889C107.135 50.8824 107.049 50.6734 106.968 50.4619C105.721 47.358 104.966 44.0242 104.738 40.6166C104.723 40.4076 104.71 40.1987 104.702 39.9871C104.674 39.4461 104.661 38.8977 104.661 38.3469C104.657 34.6832 105.26 31.0519 106.438 27.6466C106.509 27.4351 106.584 27.2261 106.661 27.0171C109.032 20.6263 113.317 15.4182 118.742 12.333H133.376C133.65 12.3337 133.912 12.4587 134.105 12.6807C134.298 12.9027 134.407 13.2035 134.407 13.5172V13.5189Z"
      fill="#B256FC"
    />
    <path
      d="M130.435 18.52H75.6972C75.6395 18.52 75.5841 18.4937 75.5433 18.4468C75.5024 18.4 75.4795 18.3365 75.4795 18.2702C75.4795 18.204 75.5024 18.1405 75.5433 18.0937C75.5841 18.0468 75.6395 18.0205 75.6972 18.0205H130.435C130.493 18.0205 130.548 18.0468 130.589 18.0937C130.63 18.1405 130.653 18.204 130.653 18.2702C130.653 18.3365 130.63 18.4 130.589 18.4468C130.548 18.4937 130.493 18.52 130.435 18.52Z"
      fill="#CACACA"
    />
    <path
      d="M79.4231 16.747C80.1277 16.747 80.6988 16.0772 80.6988 15.2509C80.6988 14.4247 80.1277 13.7549 79.4231 13.7549C78.7186 13.7549 78.1475 14.4247 78.1475 15.2509C78.1475 16.0772 78.7186 16.747 79.4231 16.747Z"
      fill="#090814"
    />
    <path
      d="M83.8304 16.747C84.5349 16.747 85.106 16.0772 85.106 15.2509C85.106 14.4247 84.5349 13.7549 83.8304 13.7549C83.1258 13.7549 82.5547 14.4247 82.5547 15.2509C82.5547 16.0772 83.1258 16.747 83.8304 16.747Z"
      fill="#090814"
    />
    <path
      d="M88.2376 16.747C88.9421 16.747 89.5133 16.0772 89.5133 15.2509C89.5133 14.4247 88.9421 13.7549 88.2376 13.7549C87.5331 13.7549 86.9619 14.4247 86.9619 15.2509C86.9619 16.0772 87.5331 16.747 88.2376 16.747Z"
      fill="#090814"
    />
    <path
      d="M127.782 14.126H124.652C124.589 14.126 124.529 14.1546 124.484 14.2056C124.44 14.2566 124.415 14.3258 124.415 14.3979C124.415 14.47 124.44 14.5392 124.484 14.5902C124.529 14.6411 124.589 14.6698 124.652 14.6698H127.783C127.845 14.6698 127.906 14.6411 127.95 14.5902C127.995 14.5392 128.02 14.47 128.02 14.3979C128.02 14.3258 127.995 14.2566 127.95 14.2056C127.906 14.1546 127.845 14.126 127.783 14.126H127.782Z"
      fill="#090814"
    />
    <path
      d="M127.782 15.1465H124.652C124.589 15.1465 124.529 15.1751 124.484 15.2261C124.44 15.2771 124.415 15.3463 124.415 15.4184C124.415 15.4905 124.44 15.5597 124.484 15.6107C124.529 15.6617 124.589 15.6903 124.652 15.6903H127.783C127.845 15.6903 127.906 15.6617 127.95 15.6107C127.995 15.5597 128.02 15.4905 128.02 15.4184C128.02 15.3463 127.995 15.2771 127.95 15.2261C127.906 15.1751 127.845 15.1465 127.783 15.1465H127.782Z"
      fill="#090814"
    />
    <path
      d="M127.782 16.166H124.652C124.589 16.166 124.529 16.1947 124.484 16.2457C124.44 16.2966 124.415 16.3658 124.415 16.4379C124.415 16.51 124.44 16.5792 124.484 16.6302C124.529 16.6812 124.589 16.7098 124.652 16.7098H127.783C127.845 16.7098 127.906 16.6812 127.95 16.6302C127.995 16.5792 128.02 16.51 128.02 16.4379C128.02 16.3658 127.995 16.2966 127.95 16.2457C127.906 16.1947 127.845 16.166 127.783 16.166H127.782Z"
      fill="#090814"
    />
    <path
      d="M92.1023 33.1084H85.1586C84.6735 33.1084 84.2803 33.5595 84.2803 34.1159V34.235C84.2803 34.7915 84.6735 35.2426 85.1586 35.2426H92.1023C92.5874 35.2426 92.9806 34.7915 92.9806 34.235V34.1159C92.9806 33.5595 92.5874 33.1084 92.1023 33.1084Z"
      fill="#B256FC"
    />
    <path
      d="M96.5203 37.377H80.7396C80.2546 37.377 79.8613 37.828 79.8613 38.3845V38.5036C79.8613 39.06 80.2546 39.5111 80.7396 39.5111H96.5203C97.0054 39.5111 97.3986 39.06 97.3986 38.5036V38.3845C97.3986 37.828 97.0054 37.377 96.5203 37.377Z"
      fill="#E6E6E6"
    />
    <path
      d="M96.5203 41.6455H80.7396C80.2546 41.6455 79.8613 42.0966 79.8613 42.653V42.7721C79.8613 43.3286 80.2546 43.7797 80.7396 43.7797H96.5203C97.0054 43.7797 97.3986 43.3286 97.3986 42.7721V42.653C97.3986 42.0966 97.0054 41.6455 96.5203 41.6455Z"
      fill="#E6E6E6"
    />
    <path
      d="M81.2925 57.0374C81.2938 57.9165 81.1573 58.7886 80.8894 59.6123H74.8759C74.6025 59.6119 74.3404 59.4872 74.1471 59.2654C73.9538 59.0437 73.845 58.743 73.8447 58.4294V49.753C74.1807 49.6909 74.5205 49.6598 74.8609 49.6602C75.7055 49.6601 76.5419 49.8509 77.3223 50.2217C78.1026 50.5925 78.8117 51.136 79.4089 51.8211C80.0061 52.5063 80.4799 53.3196 80.8031 54.2148C81.1262 55.11 81.2925 56.0694 81.2925 57.0383V57.0374Z"
      fill="#B256FC"
    />
    <path
      opacity="0.2"
      d="M134.461 27.6483V27.0188H125.262V19.7217H124.715V27.0183H114.171V19.7217H113.625V27.0183H106.662C106.584 27.2273 106.509 27.4363 106.439 27.6478H113.625V39.9884H104.702C104.711 40.1999 104.724 40.4089 104.739 40.6178H113.625V50.4631H106.968C107.049 50.6746 107.135 50.8836 107.225 51.0901H113.625V59.3655H114.171V51.0894H124.715V59.3648H125.261V51.0894H134.461V50.4624H125.262V40.6172H134.461V39.9877H125.262V27.6483H134.461ZM124.715 50.4627H114.171V40.6174H124.715V50.4627ZM124.715 39.9888H114.171V27.6483H124.715V39.9888Z"
      fill="black"
    />
    <path
      d="M127.054 54.9529C126.936 54.9591 126.82 54.9238 126.721 54.8517C126.621 54.7796 126.544 54.6743 126.499 54.5499C126.453 54.4255 126.442 54.2882 126.467 54.1565C126.492 54.0248 126.552 53.9051 126.638 53.8137L126.678 53.6347L126.662 53.5917C126.544 53.2714 126.346 52.9982 126.093 52.8066C125.84 52.615 125.543 52.5134 125.24 52.5147C124.936 52.516 124.64 52.6201 124.388 52.8139C124.137 53.0076 123.94 53.2824 123.824 53.6038C123.36 54.8862 122.769 56.1708 122.624 57.5266C122.559 58.1259 122.587 58.7335 122.704 59.3222C121.613 56.5942 121.047 53.6293 121.044 50.6284C121.043 49.8753 121.08 49.1228 121.153 48.3744C121.213 47.7609 121.297 47.1518 121.404 46.547C121.989 43.2656 123.243 40.1899 125.065 37.5727C125.946 37.0208 126.66 36.1721 127.108 35.1411C127.27 34.7704 127.385 34.3748 127.449 33.9664C127.349 33.9812 127.248 33.9896 127.149 33.9982L127.054 34.0038H127.042C126.933 34.0096 126.825 33.9791 126.73 33.9157C126.635 33.8523 126.559 33.7589 126.51 33.6467C126.46 33.5345 126.441 33.4083 126.452 33.2835C126.464 33.1586 126.508 33.0404 126.577 32.9431L126.706 32.7613C126.771 32.6684 126.838 32.5755 126.903 32.4826C126.91 32.4737 126.917 32.4643 126.923 32.4545C126.999 32.3479 127.073 32.2432 127.149 32.1366C127.012 31.8928 126.827 31.6886 126.61 31.5399C125.859 31.0348 124.822 31.3845 124.279 32.1645C123.736 32.9445 123.631 34.0386 123.82 35.0131C124.006 35.8424 124.314 36.6292 124.73 37.34C124.69 37.3999 124.647 37.4577 124.606 37.5176C123.861 38.6168 123.212 39.797 122.667 41.0415C122.8 39.6473 122.642 38.2369 122.206 36.9265C121.765 35.7051 120.938 34.6767 120.209 33.6209C119.334 32.3526 117.54 32.9062 117.386 34.5137C117.384 34.5292 117.383 34.5446 117.381 34.5601C117.489 34.6301 117.595 34.7044 117.699 34.783C117.829 34.8828 117.93 35.0254 117.988 35.192C118.047 35.3587 118.06 35.5417 118.026 35.717C117.992 35.8924 117.913 36.0519 117.799 36.1747C117.684 36.2975 117.54 36.3778 117.386 36.4052L117.37 36.408C117.408 36.8553 117.477 37.2986 117.574 37.7341C117.855 38.9498 118.353 40.0857 119.035 41.0706C119.717 42.0555 120.569 42.8681 121.538 43.4576C121.601 43.4949 121.663 43.5323 121.727 43.5679C121.18 45.3461 120.836 47.1984 120.706 49.0782C120.632 50.1872 120.636 51.3012 120.719 52.4093L120.714 52.3701C120.505 51.1378 119.932 50.0259 119.092 49.2222C117.843 48.0456 116.079 47.6123 114.732 46.6668C114.589 46.5613 114.423 46.505 114.253 46.5045C114.082 46.504 113.916 46.5593 113.772 46.664C113.628 46.7686 113.514 46.9182 113.442 47.0951C113.37 47.272 113.344 47.4688 113.366 47.6622C113.368 47.676 113.37 47.6898 113.372 47.7036C113.572 47.7974 113.768 47.9055 113.957 48.0273C114.065 48.0972 114.171 48.1715 114.275 48.2502C114.405 48.35 114.506 48.4925 114.564 48.6592C114.623 48.8258 114.636 49.0088 114.602 49.1842C114.568 49.3595 114.489 49.519 114.374 49.6418C114.26 49.7646 114.116 49.845 113.961 49.8723L113.946 49.8751L113.913 49.8807C114.256 50.8203 114.738 51.6852 115.337 52.4374C116.076 53.3481 116.971 54.0758 117.964 54.5759C118.958 55.076 120.03 55.3381 121.115 55.346H121.117C121.411 56.8143 121.838 58.2435 122.39 59.6106H126.94C126.956 59.5525 126.971 59.4926 126.985 59.4348C126.564 59.4652 126.141 59.4364 125.727 59.3489C126.064 58.8738 126.402 58.395 126.739 57.9199C126.746 57.911 126.753 57.9016 126.759 57.8918C126.93 57.6487 127.103 57.4075 127.274 57.1643C127.283 56.419 127.208 55.6754 127.051 54.9519L127.054 54.9529ZM121.844 43.1973L121.846 43.1935L121.844 43.201V43.1973ZM120.837 53.6175L120.798 53.5165C120.799 53.4436 120.799 53.3707 120.798 53.2957C120.798 53.275 120.794 53.2546 120.794 53.2339C120.809 53.363 120.822 53.4921 120.838 53.621L120.837 53.6175Z"
      fill="#090814"
    />
    <path
      d="M35.7822 20.3666L35.7316 19.7985L36.4095 15.8871L41.322 16.2447L41.4585 21.3503L35.7822 20.3666Z"
      fill="#ED9DA0"
    />
    <path
      d="M45.4156 9.5718C44.9685 7.06288 44.7541 5.77765 43.1282 4.00271C42.7426 4.0654 43.2295 6.35954 41.104 9.55532C38.0134 14.2009 38.3215 9.94146 37.4076 11.3725C37.2092 11.6832 37.1663 12.804 37.2315 13.1897C37.4892 14.7134 39.0128 13.2257 37.4076 18.4395C37.1685 18.8449 36.8869 18.7465 36.5274 18.7414C36.4997 18.7414 36.6819 18.7012 35.9993 18.5394C35.6736 18.4623 35.2176 18.371 34.671 18.2654C28.321 17.0382 26.0788 7.84725 30.9869 3.06555C32.1037 1.97769 33.1996 1.15315 34.1512 0.770946C37.0179 -0.378677 43.5475 0.368776 44.8007 4.10372C45.3911 5.84168 45.602 7.71891 45.415 9.5718H45.4156Z"
      fill="#090814"
      stroke="black"
      strokeWidth="2"
    />
    <path
      d="M32.3364 24.3246C34.8376 24.3246 36.8652 21.9987 36.8652 19.1296C36.8652 16.2605 34.8376 13.9346 32.3364 13.9346C29.8352 13.9346 27.8076 16.2605 27.8076 19.1296C27.8076 21.9987 29.8352 24.3246 32.3364 24.3246Z"
      fill="#090814"
      stroke="black"
      strokeWidth="2"
    />
    <path
      d="M38.3322 17.8263C39.0053 17.8263 39.6508 17.5196 40.1267 16.9737C40.6027 16.4277 40.8701 15.6872 40.8701 14.9151C40.8701 14.143 40.6027 13.4025 40.1267 12.8566C39.6508 12.3106 39.0053 12.0039 38.3322 12.0039V12.3924C38.8765 12.3929 39.4013 12.6252 39.8049 13.0442C40.2085 13.4632 40.4621 14.0392 40.5166 14.6604C40.5711 15.2817 40.4227 15.9041 40.1 16.407C39.7774 16.9099 39.3034 17.2575 38.7701 17.3825C38.2368 17.5074 37.682 17.4008 37.2132 17.0834C36.7445 16.7659 36.3952 16.2602 36.2329 15.6641C36.0707 15.0681 36.1071 14.4242 36.3351 13.8572C36.5631 13.2902 36.9665 12.8404 37.467 12.5951L37.3336 12.238C36.7961 12.5018 36.3545 12.9704 36.0833 13.5647C35.8122 14.1589 35.7282 14.8422 35.8456 15.4993C35.963 16.1563 36.2745 16.7467 36.7275 17.1707C37.1806 17.5947 37.7473 17.8263 38.332 17.8263H38.3322Z"
      fill="#B256FC"
    />
    <path
      d="M48.4728 120.56C48.4728 120.56 51.1154 118.78 51.3959 121.983L51.9573 128.39C51.9573 128.39 55.8919 133.373 52.5144 133.41C49.137 133.447 44.4035 126.196 44.4035 126.196C44.4035 126.196 40.9672 120.566 42.2164 119.987C43.4656 119.408 47.0854 116.62 47.0048 117.767C46.9242 118.915 48.4728 120.56 48.4728 120.56Z"
      fill="#090814"
    />
  </g>
  <defs>
    <clipPath id="clip0_793_9645">
      <rect width="162" height="139.58" fill="white" />
    </clipPath>
  </defs>
</svg>
