<svg
  width="162"
  height="140"
  viewBox="0 0 162 140"
  fill="none"
  xmlns="http://www.w3.org/2000/svg"
>
  <g clipPath="url(#clip0_793_9647)">
    <path
      d="M41.0558 12.5996H31.1473C30.1946 12.6006 29.2811 13.0358 28.6075 13.8098C27.9339 14.5838 27.5552 15.6332 27.5545 16.7277V29.0686C27.4278 29.06 27.3012 29.047 27.1762 29.0295C24.8289 28.7458 22.5972 27.7143 20.7328 26.0515C18.8684 24.3886 17.4454 22.1605 16.6243 19.6183C15.8032 17.076 15.6166 14.3209 16.0856 11.6634C16.5546 9.00586 17.6605 6.55171 19.2786 4.57761C20.8967 2.60351 22.9627 1.18796 25.2437 0.490571C27.5246 -0.206819 29.9298 -0.158322 32.188 0.630596C34.4462 1.41951 36.4677 2.91748 38.0245 4.9556C39.5813 6.99372 40.6116 9.49095 40.9991 12.1657C41.0199 12.3076 41.0388 12.4542 41.0558 12.5996Z"
      fill="#F2F2F2"
    />
    <path
      d="M158.029 12.166H31.1468C30.094 12.1673 29.0846 12.6484 28.3401 13.5036C27.5956 14.3589 27.1769 15.5185 27.1758 16.728V93.627C27.1769 94.8365 27.5956 95.9961 28.3401 96.8514C29.0846 97.7066 30.094 98.1877 31.1468 98.1889H158.029C159.082 98.1877 160.091 97.7066 160.835 96.8514C161.58 95.9961 161.999 94.8365 162 93.627V16.7256C161.998 15.5165 161.579 14.3575 160.835 13.5028C160.09 12.648 159.081 12.1673 158.029 12.166ZM161.621 93.6282C161.621 94.7225 161.242 95.7718 160.568 96.5456C159.895 97.3194 158.981 97.7546 158.029 97.7556H31.1468C30.1942 97.7546 29.2809 97.3194 28.6073 96.5456C27.9337 95.7718 27.5549 94.7225 27.554 93.6282V16.7256C27.5549 15.6313 27.9337 14.582 28.6073 13.8082C29.2809 13.0344 30.1942 12.5992 31.1468 12.5982H158.029C158.981 12.5992 159.895 13.0344 160.568 13.8082C161.242 14.582 161.621 15.6313 161.621 16.7256V93.6282Z"
      fill="#3F3D56"
    />
    <path
      d="M151.789 24.6279H37.3874C37.3372 24.6279 37.2891 24.605 37.2536 24.5643C37.2182 24.5235 37.1982 24.4683 37.1982 24.4106C37.1982 24.353 37.2182 24.2977 37.2536 24.257C37.2891 24.2163 37.3372 24.1934 37.3874 24.1934H151.789C151.839 24.1934 151.887 24.2163 151.923 24.257C151.958 24.2977 151.978 24.353 151.978 24.4106C151.978 24.4683 151.958 24.5235 151.923 24.5643C151.887 24.605 151.839 24.6279 151.789 24.6279Z"
      fill="#3F3D56"
    />
    <path
      d="M69.7223 88.8483C69.6722 88.8483 69.6241 88.8254 69.5886 88.7846C69.5531 88.7439 69.5332 88.6886 69.5332 88.631V17.1616C69.5332 17.104 69.5531 17.0487 69.5886 17.008C69.6241 16.9672 69.6722 16.9443 69.7223 16.9443C69.7725 16.9443 69.8206 16.9672 69.8561 17.008C69.8915 17.0487 69.9115 17.104 69.9115 17.1616V88.631C69.9115 88.6886 69.8915 88.7439 69.8561 88.7846C69.8206 88.8254 69.7725 88.8483 69.7223 88.8483Z"
      fill="#3F3D56"
    />
    <path
      d="M98.2751 88.8483C98.2249 88.8483 98.1768 88.8254 98.1413 88.7846C98.1059 88.7439 98.0859 88.6886 98.0859 88.631V17.1616C98.0859 17.104 98.1059 17.0487 98.1413 17.008C98.1768 16.9672 98.2249 16.9443 98.2751 16.9443C98.3252 16.9443 98.3733 16.9672 98.4088 17.008C98.4443 17.0487 98.4642 17.104 98.4642 17.1616V88.631C98.4642 88.6886 98.4443 88.7439 98.4088 88.7846C98.3733 88.8254 98.3252 88.8483 98.2751 88.8483Z"
      fill="#3F3D56"
    />
    <path
      d="M126.829 88.8483C126.779 88.8483 126.731 88.8254 126.695 88.7846C126.66 88.7439 126.64 88.6886 126.64 88.631V17.1616C126.64 17.104 126.66 17.0487 126.695 17.008C126.731 16.9672 126.779 16.9443 126.829 16.9443C126.879 16.9443 126.927 16.9672 126.963 17.008C126.998 17.0487 127.018 17.104 127.018 17.1616V88.631C127.018 88.6886 126.998 88.7439 126.963 88.7846C126.927 88.8254 126.879 88.8483 126.829 88.8483Z"
      fill="#3F3D56"
    />
    <path
      d="M51.3645 47.0501H44.455C44.2295 47.0497 44.0134 46.9466 43.854 46.7634C43.6946 46.5803 43.6049 46.332 43.6045 46.073V36.7056C43.6049 36.4466 43.6946 36.1983 43.854 36.0152C44.0134 35.832 44.2295 35.7289 44.455 35.7285H51.3645C51.5899 35.7289 51.806 35.832 51.9655 36.0152C52.1249 36.1983 52.2146 36.4466 52.215 36.7056V46.0726C52.2146 46.3316 52.1249 46.5798 51.9655 46.763C51.806 46.9461 51.5899 47.0492 51.3645 47.0496V47.0501Z"
      fill="#B256FC"
    />
    <path
      d="M42.8725 83.8881L36.4658 80.9144C36.2569 80.817 36.0901 80.6284 36.002 80.39C35.914 80.1516 35.9117 79.8828 35.9958 79.6425L39.0505 70.9567C39.1353 70.7167 39.2995 70.5251 39.507 70.4239C39.7145 70.3227 39.9485 70.3202 40.1577 70.4168L46.5645 73.3905C46.7734 73.4879 46.9401 73.6765 47.0282 73.9149C47.1163 74.1533 47.1185 74.4221 47.0344 74.6624L43.9799 83.3477C43.8951 83.5878 43.731 83.7796 43.5234 83.8808C43.3158 83.9821 43.0818 83.9847 42.8725 83.8881Z"
      fill="#B256FC"
    />
    <path
      d="M83.51 52.6975H76.6005C76.3751 52.6971 76.1589 52.594 75.9995 52.4109C75.8401 52.2278 75.7504 51.9795 75.75 51.7205V42.353C75.7504 42.094 75.8401 41.8458 75.9995 41.6626C76.1589 41.4795 76.3751 41.3764 76.6005 41.376H83.51C83.7354 41.3764 83.9516 41.4795 84.111 41.6626C84.2704 41.8458 84.3601 42.094 84.3605 42.353V51.72C84.3602 51.9791 84.2705 52.2275 84.1111 52.4107C83.9517 52.594 83.7355 52.6971 83.51 52.6975Z"
      fill="#B256FC"
    />
    <path
      d="M112.442 42.4876H105.532C105.307 42.4872 105.091 42.3841 104.931 42.2009C104.772 42.0178 104.682 41.7695 104.682 41.5105V32.1431C104.682 31.8841 104.772 31.6358 104.931 31.4527C105.091 31.2695 105.307 31.1664 105.532 31.166H112.442C112.667 31.1664 112.883 31.2695 113.043 31.4527C113.202 31.6358 113.292 31.8841 113.292 32.1431V41.5101C113.292 41.7691 113.202 42.0175 113.043 42.2008C112.883 42.384 112.667 42.4871 112.442 42.4876Z"
      fill="#B256FC"
    />
    <path
      d="M139.104 42.4876H132.194C131.969 42.4872 131.753 42.3841 131.593 42.2009C131.434 42.0178 131.344 41.7695 131.344 41.5105V32.1431C131.344 31.8841 131.434 31.6358 131.593 31.4527C131.753 31.2695 131.969 31.1664 132.194 31.166H139.104C139.329 31.1664 139.545 31.2695 139.705 31.4527C139.864 31.6358 139.954 31.8841 139.954 32.1431V41.5101C139.954 41.7691 139.864 42.0173 139.705 42.2005C139.545 42.3836 139.329 42.4867 139.104 42.4871V42.4876Z"
      fill="#B256FC"
    />
    <path
      d="M151.395 45.095H144.485C144.26 45.0946 144.044 44.9915 143.884 44.8084C143.725 44.6252 143.635 44.3769 143.635 44.1179V34.7505C143.635 34.4915 143.725 34.2432 143.884 34.0601C144.044 33.8769 144.26 33.7739 144.485 33.7734H151.395C151.62 33.7739 151.836 33.8769 151.996 34.0601C152.155 34.2432 152.245 34.4915 152.245 34.7505V44.1175C152.245 44.3766 152.155 44.625 151.996 44.8082C151.836 44.9914 151.62 45.0946 151.395 45.095Z"
      fill="#E6E6E6"
    />
    <path
      d="M145.911 61.8216H139.002C138.776 61.8211 138.56 61.7181 138.401 61.5349C138.241 61.3518 138.152 61.1035 138.151 60.8445V51.4771C138.152 51.2181 138.241 50.9698 138.401 50.7867C138.56 50.6035 138.776 50.5004 139.002 50.5H145.911C146.137 50.5004 146.353 50.6035 146.512 50.7867C146.672 50.9698 146.761 51.2181 146.762 51.4771V60.844C146.762 61.1031 146.672 61.3515 146.512 61.5348C146.353 61.718 146.137 61.8211 145.911 61.8216Z"
      fill="#E6E6E6"
    />
    <path
      d="M122.463 58.346H115.554C115.328 58.3455 115.112 58.2425 114.953 58.0593C114.793 57.8762 114.703 57.6279 114.703 57.3689V48.0015C114.703 47.7425 114.793 47.4942 114.953 47.3111C115.112 47.1279 115.328 47.0248 115.554 47.0244H122.463C122.689 47.0248 122.905 47.1279 123.064 47.3111C123.224 47.4942 123.313 47.7425 123.314 48.0015V57.3685C123.313 57.6275 123.224 57.8759 123.064 58.0592C122.905 58.2424 122.689 58.3455 122.463 58.346Z"
      fill="#FF6584"
    />
    <path
      d="M109.037 61.8216H102.128C101.902 61.8211 101.686 61.7181 101.527 61.5349C101.367 61.3518 101.278 61.1035 101.277 60.8445V51.4771C101.278 51.2181 101.367 50.9698 101.527 50.7867C101.686 50.6035 101.902 50.5004 102.128 50.5H109.037C109.263 50.5004 109.479 50.6035 109.638 50.7867C109.798 50.9698 109.887 51.2181 109.888 51.4771V60.844C109.888 61.1031 109.798 61.3515 109.638 61.5348C109.479 61.718 109.263 61.8211 109.037 61.8216Z"
      fill="#E6E6E6"
    />
    <path
      d="M80.1067 76.593H73.1972C72.9717 76.5926 72.7556 76.4895 72.5962 76.3064C72.4368 76.1233 72.3471 75.875 72.3467 75.616V66.2485C72.3471 65.9895 72.4368 65.7413 72.5962 65.5581C72.7556 65.375 72.9717 65.2719 73.1972 65.2715H80.1067C80.3321 65.2719 80.5482 65.375 80.7077 65.5581C80.8671 65.7413 80.9568 65.9895 80.9572 66.2485V75.6155C80.9568 75.8745 80.8671 76.1228 80.7077 76.3059C80.5482 76.4891 80.3321 76.5922 80.1067 76.5926V76.593Z"
      fill="#E6E6E6"
    />
    <path
      d="M57.5491 64.2112H50.6396C50.4141 64.2108 50.198 64.1077 50.0386 63.9246C49.8792 63.7414 49.7894 63.4932 49.7891 63.2342V53.8667C49.7894 53.6077 49.8792 53.3594 50.0386 53.1763C50.198 52.9932 50.4141 52.8901 50.6396 52.8896H57.5491C57.7745 52.8901 57.9906 52.9932 58.15 53.1763C58.3095 53.3594 58.3992 53.6077 58.3996 53.8667V63.2337C58.3992 63.4927 58.3095 63.741 58.15 63.9241C57.9906 64.1072 57.7745 64.2103 57.5491 64.2108V64.2112Z"
      fill="#FF6584"
    />
    <path
      d="M64.6008 47.0501H57.6913C57.4659 47.0497 57.2498 46.9466 57.0903 46.7634C56.9309 46.5803 56.8412 46.332 56.8408 46.073V36.7056C56.8412 36.4466 56.9309 36.1983 57.0903 36.0152C57.2498 35.832 57.4659 35.7289 57.6913 35.7285H64.6008C64.8263 35.7289 65.0424 35.832 65.2018 36.0152C65.3612 36.1983 65.4509 36.4466 65.4513 36.7056V46.0726C65.4509 46.3316 65.3612 46.5798 65.2018 46.763C65.0424 46.9461 64.8263 47.0492 64.6008 47.0496V47.0501Z"
      fill="#E6E6E6"
    />
    <path
      d="M58.944 21.0718H48.1655C48.0662 21.0718 47.9678 21.0493 47.8761 21.0056C47.7843 20.962 47.7009 20.8979 47.6307 20.8173C47.5605 20.7366 47.5048 20.6408 47.4668 20.5354C47.4287 20.43 47.4092 20.317 47.4092 20.2029C47.4092 20.0888 47.4287 19.9758 47.4668 19.8704C47.5048 19.7649 47.5605 19.6692 47.6307 19.5885C47.7009 19.5078 47.7843 19.4438 47.8761 19.4001C47.9678 19.3565 48.0662 19.334 48.1655 19.334H58.944C59.0433 19.334 59.1416 19.3565 59.2334 19.4001C59.3252 19.4438 59.4085 19.5078 59.4788 19.5885C59.549 19.6692 59.6047 19.7649 59.6427 19.8704C59.6807 19.9758 59.7003 20.0888 59.7003 20.2029C59.7003 20.317 59.6807 20.43 59.6427 20.5354C59.6047 20.6408 59.549 20.7366 59.4788 20.8173C59.4085 20.8979 59.3252 20.962 59.2334 21.0056C59.1416 21.0493 59.0433 21.0718 58.944 21.0718Z"
      fill="#CCCCCC"
    />
    <path
      d="M89.3873 21.0718H78.6089C78.5095 21.0718 78.4112 21.0493 78.3194 21.0056C78.2277 20.962 78.1443 20.8979 78.0741 20.8173C78.0038 20.7366 77.9481 20.6408 77.9101 20.5354C77.8721 20.43 77.8525 20.317 77.8525 20.2029C77.8525 20.0888 77.8721 19.9758 77.9101 19.8704C77.9481 19.7649 78.0038 19.6692 78.0741 19.5885C78.1443 19.5078 78.2277 19.4438 78.3194 19.4001C78.4112 19.3565 78.5095 19.334 78.6089 19.334H89.3873C89.5879 19.334 89.7803 19.4255 89.9221 19.5885C90.064 19.7514 90.1437 19.9724 90.1437 20.2029C90.1437 20.4333 90.064 20.6543 89.9221 20.8173C89.7803 20.9802 89.5879 21.0718 89.3873 21.0718Z"
      fill="#CCCCCC"
    />
    <path
      d="M117.941 21.0718H107.163C107.063 21.0718 106.965 21.0493 106.873 21.0056C106.781 20.962 106.698 20.8979 106.628 20.8173C106.558 20.7366 106.502 20.6408 106.464 20.5354C106.426 20.43 106.406 20.317 106.406 20.2029C106.406 20.0888 106.426 19.9758 106.464 19.8704C106.502 19.7649 106.558 19.6692 106.628 19.5885C106.698 19.5078 106.781 19.4438 106.873 19.4001C106.965 19.3565 107.063 19.334 107.163 19.334H117.941C118.142 19.334 118.334 19.4255 118.476 19.5885C118.618 19.7514 118.697 19.9724 118.697 20.2029C118.697 20.4333 118.618 20.6543 118.476 20.8173C118.334 20.9802 118.142 21.0718 117.941 21.0718Z"
      fill="#CCCCCC"
    />
    <path
      d="M144.603 21.0718H133.825C133.624 21.0718 133.432 20.9802 133.29 20.8173C133.148 20.6543 133.068 20.4333 133.068 20.2029C133.068 19.9724 133.148 19.7514 133.29 19.5885C133.432 19.4255 133.624 19.334 133.825 19.334H144.603C144.804 19.334 144.996 19.4255 145.138 19.5885C145.28 19.7514 145.359 19.9724 145.359 20.2029C145.359 20.4333 145.28 20.6543 145.138 20.8173C144.996 20.9802 144.804 21.0718 144.603 21.0718Z"
      fill="#CCCCCC"
    />
    <path
      d="M145.795 138.499H0.234697C0.172451 138.499 0.112755 138.471 0.068741 138.42C0.0247268 138.37 0 138.301 0 138.23C0 138.158 0.0247268 138.089 0.068741 138.039C0.112755 137.988 0.172451 137.96 0.234697 137.96H145.795C145.857 137.96 145.917 137.988 145.961 138.039C146.005 138.089 146.03 138.158 146.03 138.23C146.03 138.301 146.005 138.37 145.961 138.42C145.917 138.471 145.857 138.499 145.795 138.499Z"
      fill="#3F3D56"
    />
    <path
      d="M36.2948 131.799H33.2549V136.402H36.2948V131.799Z"
      fill="#ED9DA0"
    />
    <path
      d="M33.7739 139.579H40.2357C40.7913 139.578 41.3396 139.434 41.8407 139.159L43.0318 138.501C43.1629 138.428 43.2717 138.312 43.3435 138.166C43.4154 138.021 43.4469 137.854 43.434 137.687C43.421 137.521 43.3641 137.363 43.271 137.234C43.1778 137.106 43.0528 137.013 42.9125 136.968L40.4546 136.187L36.2507 133.648L36.2477 133.666C36.1695 134.124 36.0474 134.815 36.0316 134.857C35.6005 135.425 35.1576 135.686 34.7153 135.634C33.9436 135.545 33.4307 134.521 33.4258 134.511L33.422 134.503H33.4141C33.3357 134.506 33.2591 134.531 33.1902 134.574C33.1213 134.617 33.0619 134.678 33.0168 134.752C32.8406 135.057 32.9481 135.526 32.9657 135.597C32.7549 135.834 32.6604 137.157 32.6529 137.264C32.3481 137.636 32.2033 137.992 32.2224 138.324C32.2387 138.484 32.2843 138.638 32.3562 138.777C32.4281 138.915 32.5246 139.034 32.6395 139.127C32.9617 139.421 33.3618 139.58 33.7735 139.578L33.7739 139.579Z"
      fill="#090814"
    />
    <path
      d="M12.086 134.12L15.0049 135.096L16.1241 130.676L13.2052 129.7L12.086 134.12Z"
      fill="#ED9DA0"
    />
    <path
      d="M11.8119 137.337L18.0167 139.41C18.5504 139.588 19.1119 139.626 19.66 139.522L20.9639 139.272C21.1072 139.245 21.2398 139.167 21.3439 139.051C21.448 138.934 21.5188 138.784 21.5468 138.62C21.5747 138.456 21.5586 138.287 21.5005 138.134C21.4424 137.98 21.3451 137.851 21.2215 137.763L19.0521 136.225L15.6319 132.438L15.6246 132.454C15.4385 132.867 15.1524 133.493 15.1277 133.528C14.5758 133.935 14.0868 134.044 13.6747 133.851C12.9552 133.518 12.712 132.37 12.7096 132.359L12.7078 132.35L12.7001 132.348C12.6239 132.327 12.5445 132.325 12.4679 132.345C12.3912 132.364 12.3195 132.403 12.2582 132.46C12.0152 132.696 12.0041 133.181 12.0037 133.255C11.7437 133.415 11.3312 134.655 11.298 134.755C10.9151 135.014 10.6893 135.31 10.6269 135.635C10.6038 135.794 10.6102 135.957 10.6457 136.113C10.6812 136.269 10.7449 136.414 10.8328 136.54C11.0706 136.926 11.4162 137.207 11.8123 137.337L11.8119 137.337Z"
      fill="#090814"
    />
    <path
      d="M21.8623 49.0774C21.863 48.0285 22.1166 47.0003 22.5951 46.1069C23.0736 45.2135 23.7582 44.4899 24.573 44.0165C25.3877 43.543 26.3008 43.3381 27.2108 43.4246C28.1207 43.5111 28.992 43.8856 29.728 44.5065C30.4639 45.1274 31.0357 45.9704 31.3798 46.9419C31.724 47.9135 31.8271 48.9757 31.6777 50.0105C31.5283 51.0453 31.1322 52.0123 30.5333 52.8041C29.9345 53.596 29.1564 54.1818 28.2854 54.4964L27.33 61.7499L22.4597 57.0879C23.1238 56.084 23.6677 54.9823 24.0768 53.8122C23.3962 53.295 22.8377 52.592 22.4514 51.766C22.0652 50.9401 21.8632 50.0171 21.8635 49.0795L21.8623 49.0774Z"
      fill="#ED9DA0"
    />
    <path
      d="M19.9119 77.0996L19.1983 65.625C19.1364 64.63 19.2458 63.6307 19.5204 62.6843L21.6351 55.3984L27.8624 57.6962L30.4899 64.6019L31.9209 67.6159C32.2381 68.2839 32.3585 69.052 32.2641 69.8052C32.1697 70.5584 31.8656 71.2563 31.3973 71.7944L30.4903 72.8364L31.7549 78.1649L31.6218 78.1595L31.8002 78.186C31.8002 78.186 40.2552 107.406 39.9516 132.257H29.0993L28.4551 103.41L26.5701 133.377L12.2695 132.431L19.9113 77.0987L19.9119 77.0996Z"
      fill="#E6E6E6"
    />
    <path
      d="M20.2756 56.5371C20.2756 56.5371 20.5065 58.5494 22.6449 58.6143L26.982 58.7476C26.982 58.7476 23.3156 48.4971 24.8238 49.6517C26.332 50.8062 30.352 45.9651 30.352 45.9651L31.5383 48.5208C31.5383 48.5208 34.3716 47.3418 31.2315 44.4551C31.2315 44.4551 27.484 41.1263 23.5057 43.1256C19.5274 45.1248 20.2756 56.5371 20.2756 56.5371Z"
      fill="#090814"
    />
    <path
      d="M37.8146 79.3622C37.872 78.0811 36.8273 76.9784 35.4802 76.8982C35.1291 76.8699 34.7765 76.9222 34.4432 77.0521C34.1098 77.1819 33.8023 77.3867 33.5385 77.6545L33.5073 77.6526L25.5215 76.7025L26.1205 67.5972C26.342 65.8364 25.9117 64.0612 24.4019 63.6625C23.9643 63.5467 23.5097 63.5461 23.0719 63.6607C22.6341 63.7754 22.2246 64.0023 21.874 64.3246C21.5234 64.6468 21.2408 65.0559 21.0473 65.5214C20.8539 65.9869 20.7546 66.4966 20.7569 67.0124L20.8026 78.4812C20.804 78.8688 20.872 79.2522 21.0026 79.6095C21.1331 79.9668 21.3238 80.2911 21.5636 80.5636C21.8034 80.8362 22.0877 81.0517 22.4001 81.1979C22.7125 81.344 23.047 81.418 23.3843 81.4154L33.4066 80.5547C33.6449 80.8523 33.9323 81.0924 34.2522 81.2611C34.572 81.4298 34.9179 81.5237 35.2696 81.5373C36.6169 81.6174 37.7563 80.6438 37.8134 79.3634L37.8146 79.3622Z"
      fill="#ED9DA0"
    />
    <path
      d="M26.8897 63.5772L26.4085 73.9654L19.7246 73.4443L20.9066 62.6406"
      fill="#E6E6E6"
    />
    <path
      d="M94.9227 137.928H88.271C87.6989 137.927 87.1343 137.779 86.6184 137.495L85.392 136.818C85.2569 136.744 85.1449 136.624 85.0708 136.474C84.9967 136.324 84.9642 136.152 84.9775 135.981C84.9909 135.809 85.0495 135.646 85.1454 135.514C85.2414 135.382 85.3703 135.286 85.5148 135.241L88.0444 134.436L92.3728 131.823L92.3761 131.842C92.4571 132.313 92.5824 133.024 92.5988 133.068C93.0427 133.652 93.4985 133.921 93.9539 133.868C94.7481 133.775 95.2763 132.722 95.2815 132.711L95.2854 132.703H95.2935C95.3741 132.707 95.453 132.732 95.5239 132.776C95.5948 132.82 95.6558 132.883 95.7023 132.959C95.8846 133.273 95.773 133.756 95.7548 133.829C95.9718 134.073 96.0695 135.434 96.0767 135.545C96.3904 135.927 96.5397 136.295 96.5206 136.637C96.5039 136.802 96.457 136.961 96.383 137.103C96.3091 137.245 96.2097 137.368 96.0915 137.463C95.76 137.767 95.3481 137.931 94.9241 137.928L94.9227 137.928Z"
      fill="#090814"
    />
    <path
      d="M77.8365 79.8513C78.056 79.9154 78.285 79.9234 78.5074 79.8748C78.7299 79.8262 78.9404 79.7221 79.124 79.5699C79.3077 79.4177 79.46 79.2211 79.5704 78.9939C79.6807 78.7667 79.7463 78.5145 79.7626 78.255L85.0791 76.6191L82.9405 74.4375L78.2198 76.3253C77.8383 76.3222 77.4691 76.48 77.1822 76.7689C76.8953 77.0578 76.7107 77.4576 76.6634 77.8925C76.6161 78.3274 76.7094 78.7671 76.9257 79.1282C77.1419 79.4893 77.466 79.7466 77.8365 79.8513Z"
      fill="#9F616A"
    />
    <path
      d="M81.7334 78.9277C81.8452 78.9977 81.9686 79.0398 82.0954 79.0514C82.2223 79.063 82.3499 79.0437 82.4699 78.995L91.2155 75.1819C93.349 74.3129 95.1351 72.5833 96.2417 70.3147L99.8888 62.8409C100.144 62.5123 100.34 62.1292 100.467 61.7134C100.593 61.2977 100.647 60.8573 100.625 60.4176C100.604 59.9779 100.507 59.5474 100.34 59.1507C100.174 58.7541 99.9409 58.3989 99.6549 58.1056C99.3689 57.8124 99.0354 57.5867 98.6734 57.4415C98.3115 57.2962 97.9282 57.2343 97.5455 57.2593C97.1627 57.2842 96.788 57.3956 96.4427 57.5869C96.0974 57.7782 95.7883 58.0458 95.533 58.3743L89.2207 69.8685L81.2766 75.2191C81.1209 75.3364 81.0003 75.5059 80.9312 75.7045C80.8621 75.9031 80.8477 76.1214 80.89 76.3297L81.2851 78.2529C81.3143 78.3952 81.3694 78.5288 81.4466 78.645C81.5238 78.7613 81.6215 78.8575 81.7332 78.9275L81.7334 78.9277Z"
      fill="#B256FC"
    />
    <path
      d="M97.1854 49.5518L94.0576 50.5542L94.9332 54.1847L98.9204 53.4298L97.1854 49.5518Z"
      fill="#9F616A"
    />
    <path
      d="M113.784 131.273L116.062 129.301L114.261 126.553L111.982 128.526L113.784 131.273Z"
      fill="#9F616A"
    />
    <path
      d="M117.293 132.153L112.208 136.554C111.771 136.931 111.266 137.192 110.73 137.316L109.453 137.61C109.312 137.642 109.166 137.624 109.035 137.559C108.903 137.493 108.792 137.383 108.716 137.243C108.641 137.104 108.604 136.94 108.611 136.776C108.618 136.611 108.668 136.453 108.756 136.322L110.285 134.034L112.283 129.174L112.295 129.186C112.593 129.492 113.044 129.953 113.079 129.976C113.711 130.128 114.194 130.033 114.515 129.691C115.076 129.095 114.951 127.94 114.95 127.929L114.949 127.92L114.955 127.914C115.019 127.864 115.091 127.831 115.168 127.818C115.244 127.805 115.322 127.812 115.396 127.839C115.692 127.959 115.85 128.402 115.872 128.47C116.16 128.512 116.917 129.488 116.979 129.569C117.411 129.654 117.709 129.836 117.866 130.11C117.936 130.247 117.98 130.4 117.995 130.557C118.01 130.715 117.995 130.875 117.953 131.026C117.851 131.477 117.618 131.875 117.293 132.153L117.293 132.153Z"
      fill="#090814"
    />
    <path
      d="M95.456 131.063H92.4746V134.658H95.456V131.063Z"
      fill="#9F616A"
    />
    <path
      d="M104.785 63.1698C104.785 63.1698 106.121 61.9946 106.121 64.8653L106.331 74.3523L103.977 83.3145L102.606 80.4077L103.169 74.1099L104.785 63.1698Z"
      fill="#B256FC"
    />
    <path
      d="M90.5004 89.1178C90.5004 89.1178 88.9519 97.7811 90.9133 104.89L91.9701 131.356L95.9707 131.87L97.3645 111.591L98.7067 101.51L101.494 110.702L110.681 130.15L114.914 126.355C114.914 126.355 110.223 111.653 106.758 108.566L105.02 85.8281L90.5004 89.1178Z"
      fill="#090814"
    />
    <path
      d="M99.1826 44.621C97.9813 42.0994 95.228 41.174 93.033 42.5541C90.8381 43.9343 90.0326 47.0972 91.2339 49.6188C92.4353 52.1404 95.1886 53.0658 97.3835 51.6856C99.5785 50.3055 100.384 47.1426 99.1826 44.621Z"
      fill="#9F616A"
    />
    <path
      d="M95.5324 48.223C94.9891 48.3042 94.5795 47.6646 94.3893 47.0754C94.1992 46.4861 94.0544 45.798 93.5821 45.4793C92.9368 45.0436 92.1112 45.5677 91.3733 45.4239C90.54 45.2611 89.9981 44.247 89.9558 43.2774C89.9134 42.3078 90.2492 41.3749 90.5789 40.4809L90.6939 41.592C90.6785 41.2154 90.7475 40.8406 90.8942 40.5034C91.041 40.1662 91.2606 39.8779 91.532 39.666L91.3836 41.2965C91.4152 41.0716 91.4852 40.8561 91.5895 40.6624C91.6938 40.4686 91.8303 40.3004 91.9913 40.1674C92.1524 40.0344 92.3346 39.9393 92.5277 39.8874C92.7208 39.8355 92.9209 39.828 93.1166 39.8651L93.0933 40.8366C94.052 40.6669 95.0235 40.6123 95.9921 40.6738C96.9574 40.7738 97.9296 41.1249 98.6612 41.8551C99.7547 42.9485 100.155 44.7465 100.021 46.4056C99.8872 48.0648 99.2912 49.622 98.6701 51.1281C98.514 51.5068 98.2978 51.9342 97.9357 51.9823C97.7713 51.985 97.6108 51.9247 97.4796 51.811C97.3484 51.6972 97.2538 51.5365 97.2109 51.3542C97.133 50.987 97.136 50.6032 97.2196 50.2376C97.3114 49.6793 97.4266 49.1074 97.3411 48.547C97.2557 47.9866 96.9042 47.4334 96.4127 47.3645C95.9212 47.2957 95.4182 47.9415 95.6545 48.4412L95.5324 48.223Z"
      fill="#090814"
    />
    <path
      d="M99.5493 53.4811L98.6004 51.9678C98.6004 51.9678 97.5399 52.3819 94.6999 54.0059L94.4992 55.4235L89.5693 90.2581C89.5693 90.2581 94.4968 89.9505 98.5302 89.8135C102.564 89.6765 105.703 89.7095 105.703 89.7095L105.171 79.6395L104.398 71.9696L105.593 64.7442C105.593 64.7442 107.096 58.1084 101.306 54.5316L99.5493 53.4811Z"
      fill="#B256FC"
    />
  </g>
  <defs>
    <clipPath id="clip0_793_9647">
      <rect width="162" height="139.58" fill="white" />
    </clipPath>
  </defs>
</svg>
